<svg width="45" height="39" viewBox="0 0 45 39" fill="none" xmlns="http://www.w3.org/2000/svg">
<path d="M27.5859 18.4688L29.4766 22.25H38.8438L23.2031 38.2344C22.8594 38.5781 22.4583 38.75 22 38.75C21.599 38.75 21.2552 38.5781 20.9688 38.2344L5.32812 22.25H13.4062L15.9844 16.0625L20.8828 26.9766C21.112 27.4922 21.513 27.75 22.0859 27.75C22.6589 27.75 23.0599 27.4922 23.2891 26.9766L27.5859 18.4688ZM40.8203 3.85938C42.8828 5.97917 43.9714 8.55729 44.0859 11.5938C44.2005 14.5729 43.3125 17.2083 41.4219 19.5H31.1953L28.7891 14.7734C28.5599 14.2578 28.1589 14 27.5859 14C27.013 14 26.612 14.2578 26.3828 14.7734L22.1719 23.1953L17.1875 12.0234C16.901 11.5078 16.4427 11.25 15.8125 11.25C15.2396 11.25 14.8385 11.5365 14.6094 12.1094L11.5156 19.5H2.75C0.859375 17.2083 -0.0286458 14.5729 0.0859375 11.5938C0.200521 8.55729 1.28906 5.97917 3.35156 3.85938L3.60938 3.6875C5.78646 1.39583 8.45052 0.25 11.6016 0.25C14.7526 0.25 17.4453 1.39583 19.6797 3.6875L22.0859 6.09375L24.4922 3.60156C26.7266 1.36719 29.4193 0.25 32.5703 0.25C35.7214 0.25 38.3854 1.36719 40.5625 3.60156L40.8203 3.85938Z" fill="#262626"/>
</svg>
