<svg width="42" height="45" viewBox="0 0 42 45" fill="none" xmlns="http://www.w3.org/2000/svg">
<path d="M39.9922 8.75C40.8516 12.3021 40.2214 15.4818 38.1016 18.2891C36.3828 20.5807 35.3516 23.6458 35.0078 27.4844C34.5495 32.2396 33.9479 36.25 33.2031 39.5156L32.5156 42.4375C32.401 43.0677 32.0859 43.5547 31.5703 43.8984C31.112 44.2995 30.5964 44.5 30.0234 44.5C29.6224 44.5 29.25 44.4141 28.9062 44.2422C28.5625 44.0703 28.2474 43.8411 27.9609 43.5547C27.7318 43.2682 27.5599 42.9245 27.4453 42.5234L24.5234 30.5781C24.2943 29.8333 23.8646 29.2031 23.2344 28.6875C22.6042 28.1719 21.888 27.9141 21.0859 27.9141C20.2839 27.9141 19.5677 28.1719 18.9375 28.6875C18.3073 29.2031 17.8776 29.8333 17.6484 30.5781L14.7266 42.5234C14.5547 43.0964 14.2396 43.5547 13.7812 43.8984C13.3229 44.2995 12.7786 44.5 12.1484 44.5C11.5755 44.5 11.0312 44.2995 10.5156 43.8984C10.0573 43.5547 9.77083 43.0677 9.65625 42.4375L8.96875 39.5156C8.22396 36.25 7.6224 32.2396 7.16406 27.4844C6.82031 23.6458 5.78906 20.5807 4.07031 18.2891C1.95052 15.4245 1.32031 12.2448 2.17969 8.75C2.63802 6.80208 3.58333 5.11198 5.01562 3.67969C6.44792 2.1901 8.13802 1.21615 10.0859 0.757812C11.9193 0.242188 13.8385 0.528646 15.8438 1.61719L24.4375 7.11719C24.7812 7.34635 25.125 7.43229 25.4688 7.375C25.8698 7.26042 26.1562 7.0599 26.3281 6.77344C26.8438 5.97135 26.7292 5.34115 25.9844 4.88281L23.4922 3.25C24.0651 3.02083 24.3802 2.8776 24.4375 2.82031C27.1875 0.815104 29.737 0.127604 32.0859 0.757812C34.0339 1.21615 35.724 2.1901 37.1562 3.67969C38.5885 5.11198 39.5339 6.80208 39.9922 8.75Z" fill="#262626"/>
</svg>
