<svg width="40" height="45" viewBox="0 0 40 45" fill="none" xmlns="http://www.w3.org/2000/svg">
<path d="M5.73438 25.25C5.33333 25.25 4.98958 25.1354 4.70312 24.9062C4.47396 24.6198 4.35938 24.276 4.35938 23.875C4.35938 23.6458 4.41667 23.4453 4.53125 23.2734C6.25 19.8359 7.45312 17.0859 8.14062 15.0234C8.71354 13.2474 9 11.1849 9 8.83594V4.625L20 0.5L31 4.625V8.83594C31 11.1849 31.2865 13.2474 31.8594 15.0234C32.5469 17.0859 33.75 19.8359 35.4688 23.2734C35.5833 23.4453 35.6406 23.6458 35.6406 23.875C35.6406 24.1042 35.5833 24.3333 35.4688 24.5625C35.3542 24.7917 35.1823 24.9635 34.9531 25.0781C34.7812 25.1927 34.5521 25.25 34.2656 25.25H27.2188C25.099 27.0833 22.6927 28 20 28C17.3073 28 14.901 27.0833 12.7812 25.25H5.73438ZM16.5625 6.6875V8.0625C16.5625 8.34896 16.7057 8.49219 16.9922 8.49219H18.8828V10.3828C18.8828 10.6693 19.026 10.8125 19.3125 10.8125H20.6875C20.974 10.8125 21.1172 10.6693 21.1172 10.3828V8.49219H23.0078C23.2943 8.49219 23.4375 8.34896 23.4375 8.0625V6.6875C23.4375 6.40104 23.2943 6.25781 23.0078 6.25781H21.1172V4.36719C21.1172 4.08073 20.974 3.9375 20.6875 3.9375H19.3125C19.026 3.9375 18.8828 4.08073 18.8828 4.36719V6.25781H16.9922C16.7057 6.25781 16.5625 6.40104 16.5625 6.6875ZM13.125 14.25V17C13.125 18.8906 13.7839 20.5234 15.1016 21.8984C16.4766 23.2161 18.1094 23.875 20 23.875C21.8906 23.875 23.4948 23.2161 24.8125 21.8984C26.1875 20.5234 26.875 18.8906 26.875 17V14.25H13.125ZM28.1641 28C31.2578 28.1146 33.8646 29.2891 35.9844 31.5234C38.1615 33.7578 39.25 36.4219 39.25 39.5156C39.25 40.8906 38.763 42.0651 37.7891 43.0391C36.8151 44.013 35.6406 44.5 34.2656 44.5H5.73438C4.35938 44.5 3.1849 44.013 2.21094 43.0391C1.23698 42.0651 0.75 40.8906 0.75 39.5156C0.75 36.4219 1.8099 33.7578 3.92969 31.5234C6.10677 29.2891 8.74219 28.1146 11.8359 28L20 36.1641L28.1641 28Z" fill="#262626"/>
</svg>
