<svg width="22" height="22" viewBox="0 0 22 22" fill="none" xmlns="http://www.w3.org/2000/svg">
<path d="M20 8.75C20.4062 8.75 20.75 8.90625 21.0312 9.21875C21.3438 9.5 21.5 9.84375 21.5 10.25V11.75C21.5 12.1562 21.3438 12.5156 21.0312 12.8281C20.75 13.1094 20.4062 13.25 20 13.25H13.25V20C13.25 20.4062 13.0938 20.75 12.7812 21.0312C12.5 21.3438 12.1562 21.5 11.75 21.5H10.25C9.84375 21.5 9.48438 21.3438 9.17188 21.0312C8.89062 20.75 8.75 20.4062 8.75 20V13.25H2C1.59375 13.25 1.23438 13.1094 0.921875 12.8281C0.640625 12.5156 0.5 12.1562 0.5 11.75V10.25C0.5 9.84375 0.640625 9.5 0.921875 9.21875C1.23438 8.90625 1.59375 8.75 2 8.75H8.75V2C8.75 1.59375 8.89062 1.25 9.17188 0.96875C9.48438 0.65625 9.84375 0.5 10.25 0.5H11.75C12.1562 0.5 12.5 0.65625 12.7812 0.96875C13.0938 1.25 13.25 1.59375 13.25 2V8.75H20Z" fill="#262626"/>
</svg>
