<svg width="24" height="24" viewBox="0 0 24 24" fill="none" xmlns="http://www.w3.org/2000/svg">
<path d="M3.75 3.79688C6.03125 1.51562 8.78125 0.375 12 0.375C15.2188 0.375 17.9531 1.51562 20.2031 3.79688C22.4844 6.04688 23.625 8.78125 23.625 12C23.625 15.2188 22.4844 17.9688 20.2031 20.25C17.9531 22.5 15.2188 23.625 12 23.625C8.78125 23.625 6.03125 22.5 3.75 20.25C1.5 17.9688 0.375 15.2188 0.375 12C0.375 8.78125 1.5 6.04688 3.75 3.79688ZM16.7812 8.71875C16.5 8.40625 16.1562 8.25 15.75 8.25C15.3438 8.25 14.9844 8.40625 14.6719 8.71875C14.3906 9 14.25 9.34375 14.25 9.75C14.25 10.1562 14.3906 10.5156 14.6719 10.8281C14.9844 11.1094 15.3438 11.25 15.75 11.25C16.1562 11.25 16.5 11.1094 16.7812 10.8281C17.0938 10.5156 17.25 10.1562 17.25 9.75C17.25 9.34375 17.0938 9 16.7812 8.71875ZM9.28125 8.71875C9 8.40625 8.65625 8.25 8.25 8.25C7.84375 8.25 7.48438 8.40625 7.17188 8.71875C6.89062 9 6.75 9.34375 6.75 9.75C6.75 10.1562 6.89062 10.5156 7.17188 10.8281C7.48438 11.1094 7.84375 11.25 8.25 11.25C8.65625 11.25 9 11.1094 9.28125 10.8281C9.59375 10.5156 9.75 10.1562 9.75 9.75C9.75 9.34375 9.59375 9 9.28125 8.71875ZM7.64062 18.9844C9.04688 19.8281 10.5 20.25 12 20.25C13.5 20.25 14.9375 19.8281 16.3125 18.9844C17.7188 18.1406 18.5312 17.1094 18.75 15.8906C18.7812 15.6094 18.6875 15.375 18.4688 15.1875C18.2812 15 18.0469 14.9531 17.7656 15.0469C16.2969 15.5156 14.375 15.75 12 15.75C9.625 15.75 7.70312 15.5156 6.23438 15.0469C6.04688 14.9844 5.875 14.9844 5.71875 15.0469C5.5625 15.1094 5.4375 15.2188 5.34375 15.375C5.25 15.5312 5.21875 15.7031 5.25 15.8906C5.46875 17.1094 6.26562 18.1406 7.64062 18.9844Z" fill="#262626"/>
</svg>
