<svg width="8" height="12" viewBox="0 0 8 12" fill="none" xmlns="http://www.w3.org/2000/svg">
<path d="M6.92969 6.89844L2.38281 11.4453C2.27344 11.5547 2.14062 11.6094 1.98438 11.6094C1.82812 11.6094 1.69531 11.5547 1.58594 11.4453L1.07031 10.9297C0.960938 10.8203 0.898438 10.6875 0.882812 10.5312C0.882812 10.375 0.9375 10.2422 1.04688 10.1328L4.67969 6.5L1.04688 2.86719C0.9375 2.75781 0.882812 2.625 0.882812 2.46875C0.898438 2.3125 0.960938 2.17969 1.07031 2.07031L1.58594 1.55469C1.69531 1.44531 1.82812 1.39062 1.98438 1.39062C2.14062 1.39062 2.27344 1.44531 2.38281 1.55469L6.92969 6.10156C7.05469 6.21094 7.11719 6.34375 7.11719 6.5C7.11719 6.65625 7.05469 6.78906 6.92969 6.89844Z" fill="#262626"/>
</svg>
