<svg width="47" height="45" viewBox="0 0 47 45" fill="none" xmlns="http://www.w3.org/2000/svg">
<path d="M22.0859 10.3828L40.9062 26.9688C40.9635 27.026 41.0208 27.0833 41.0781 27.1406C41.1927 27.1979 41.2786 27.2266 41.3359 27.2266V43.125C41.3359 43.526 41.1927 43.8411 40.9062 44.0703C40.6771 44.3568 40.362 44.5 39.9609 44.5H4.21094C3.8099 44.5 3.46615 44.3568 3.17969 44.0703C2.95052 43.8411 2.83594 43.526 2.83594 43.125V27.2266C2.89323 27.2266 2.97917 27.1979 3.09375 27.1406C3.20833 27.0833 3.26562 27.026 3.26562 26.9688L22.0859 10.3828ZM30.3359 32.8125V28.6875C30.3359 28.2292 30.1068 28 29.6484 28H24.8359V23.1875C24.8359 22.7292 24.6068 22.5 24.1484 22.5H20.0234C19.5651 22.5 19.3359 22.7292 19.3359 23.1875V28H14.5234C14.0651 28 13.8359 28.2292 13.8359 28.6875V32.8125C13.8359 33.2708 14.0651 33.5 14.5234 33.5H19.3359V38.3125C19.3359 38.7708 19.5651 39 20.0234 39H24.1484C24.6068 39 24.8359 38.7708 24.8359 38.3125V33.5H29.6484C30.1068 33.5 30.3359 33.2708 30.3359 32.8125ZM46.4062 20.7812C46.6927 21.0677 46.8359 21.4115 46.8359 21.8125C46.8359 22.1562 46.7214 22.4714 46.4922 22.7578L44.6875 24.8203C44.401 25.1068 44.0573 25.25 43.6562 25.25C43.2552 25.25 42.9401 25.1354 42.7109 24.9062L23.0312 7.54688C22.7448 7.31771 22.4297 7.20312 22.0859 7.20312C21.7422 7.20312 21.4271 7.31771 21.1406 7.54688L1.46094 24.9062C1.23177 25.1354 0.916667 25.25 0.515625 25.25C0.114583 25.25 -0.200521 25.1068 -0.429688 24.8203L-2.32031 22.7578C-2.54948 22.4714 -2.66406 22.1562 -2.66406 21.8125C-2.66406 21.4115 -2.52083 21.0677 -2.23438 20.7812L19.7656 1.35938C20.4531 0.786458 21.2266 0.5 22.0859 0.5C22.9453 0.5 23.7188 0.786458 24.4062 1.35938L46.4062 20.7812Z" fill="#262626"/>
</svg>
