<svg width="41" height="46" viewBox="0 0 41 46" fill="none" xmlns="http://www.w3.org/2000/svg">
<path d="M39.4922 9.75098C40.3516 13.3031 39.7214 16.4827 37.6016 19.29C35.8828 21.5817 34.8516 24.6468 34.5078 28.4854C34.0495 33.2406 33.4479 37.251 32.7031 40.5166L32.0156 43.4385C31.901 44.0687 31.5859 44.5557 31.0703 44.8994C30.612 45.3005 30.0964 45.501 29.5234 45.501C29.1224 45.501 28.75 45.415 28.4062 45.2432C28.0625 45.0713 27.7474 44.8421 27.4609 44.5557C27.2318 44.2692 27.0599 43.9255 26.9453 43.5244L24.0234 31.5791C23.7943 30.8343 23.3646 30.2041 22.7344 29.6885C22.1042 29.1729 21.388 28.915 20.5859 28.915C19.7839 28.915 19.0677 29.1729 18.4375 29.6885C17.8073 30.2041 17.3776 30.8343 17.1484 31.5791L14.2266 43.5244C14.0547 44.0973 13.7396 44.5557 13.2812 44.8994C12.8229 45.3005 12.2786 45.501 11.6484 45.501C11.0755 45.501 10.5312 45.3005 10.0156 44.8994C9.55729 44.5557 9.27083 44.0687 9.15625 43.4385L8.46875 40.5166C7.72396 37.251 7.1224 33.2406 6.66406 28.4854C6.32031 24.6468 5.28906 21.5817 3.57031 19.29C1.45052 16.4255 0.820312 13.2458 1.67969 9.75098C2.13802 7.80306 3.08333 6.11296 4.51562 4.68066C5.94792 3.19108 7.63802 2.21712 9.58594 1.75879C11.4193 1.24316 13.3385 1.52962 15.3438 2.61816L23.9375 8.11816C24.2812 8.34733 24.625 8.43327 24.9688 8.37598C25.3698 8.26139 25.6562 8.06087 25.8281 7.77441C26.3438 6.97233 26.2292 6.34212 25.4844 5.88379L22.9922 4.25098C23.5651 4.02181 23.8802 3.87858 23.9375 3.82129C26.6875 1.81608 29.237 1.12858 31.5859 1.75879C33.5339 2.21712 35.224 3.19108 36.6562 4.68066C38.0885 6.11296 39.0339 7.80306 39.4922 9.75098Z" fill="#262626"/>
</svg>
