<svg width="38" height="40" viewBox="0 0 38 40" fill="none" xmlns="http://www.w3.org/2000/svg">
<mask id="mask0_14_71" style="mask-type:alpha" maskUnits="userSpaceOnUse" x="0" y="0" width="38" height="40">
<path fill-rule="evenodd" clip-rule="evenodd" d="M19 0C8.55957 0 0.0218244 2.82731 0 13.2011V13.2011V13.2785C0.000708585 13.6424 0.0117625 14.0152 0.0337286 14.3978V14.3978C0.585291 24.0656 3.80326 30.9553 6.68578 35.0947V35.0947C8.40637 37.5658 10.1366 39.0191 11.6429 39.0244V39.0244H11.6566C12.7353 39.0218 13.6985 38.2747 14.4605 36.6245V36.6245C15.5288 34.3118 17.1196 31.8552 19 31.8552V31.8552C20.8806 31.8552 22.4712 34.3118 23.5393 36.6245V36.6245C24.3013 38.2744 25.2647 39.0215 26.3431 39.0244V39.0244H26.3568C27.8631 39.0195 29.5929 37.5661 31.3137 35.0947V35.0947C34.1967 30.9553 37.4147 24.0656 37.9663 14.3978V14.3978C37.9884 14.011 37.9994 13.6331 38 13.2655V13.2655V13.2202C37.9887 2.83031 29.447 0 19 0Z" fill="white"/>
</mask>
<g mask="url(#mask0_14_71)">
<path fill-rule="evenodd" clip-rule="evenodd" d="M19 0C8.55957 0 0.0218244 2.82731 0 13.2011V13.2011V13.2785C0.000708585 13.6424 0.0117625 14.0152 0.0337286 14.3978V14.3978C0.585291 24.0656 3.80326 30.9553 6.68578 35.0947V35.0947C8.40637 37.5658 10.1366 39.0191 11.6429 39.0244V39.0244H11.6566C12.7353 39.0218 13.6985 38.2747 14.4605 36.6245V36.6245C15.5288 34.3118 17.1196 31.8552 19 31.8552V31.8552C20.8806 31.8552 22.4712 34.3118 23.5393 36.6245V36.6245C24.3013 38.2744 25.2647 39.0215 26.3431 39.0244V39.0244H26.3568C27.8631 39.0195 29.5929 37.5661 31.3137 35.0947V35.0947C34.1967 30.9553 37.4147 24.0656 37.9663 14.3978V14.3978C37.9884 14.011 37.9994 13.6331 38 13.2655V13.2655V13.2202C37.9887 2.83031 29.447 0 19 0Z" stroke="#262626" stroke-width="4"/>
</g>
<mask id="mask1_14_71" style="mask-type:alpha" maskUnits="userSpaceOnUse" x="0" y="0" width="34" height="15">
<path fill-rule="evenodd" clip-rule="evenodd" d="M19.3667 0.0405273C8.72478 0.0405273 0.0222457 2.82758 0 13.0537V13.0537V13.13C0.000722262 13.4887 0.0119895 13.8562 0.0343797 14.2334V14.2334C-0.0650036 7.01874 5.36525 3.92657 12.5636 5.39063V5.39063C19.1032 6.72082 26.793 12.8139 31.5933 8.98285V8.98285C35.0713 6.20652 32.6022 2.36885 26.326 0.540865V0.540865C24.1641 0.18864 21.8171 0.0405273 19.3667 0.0405273Z" fill="white"/>
</mask>
<g mask="url(#mask1_14_71)">
<path fill-rule="evenodd" clip-rule="evenodd" d="M19.3667 0.0405273C8.72478 0.0405273 0.0222457 2.82758 0 13.0537V13.0537V13.13C0.000722262 13.4887 0.0119895 13.8562 0.0343797 14.2334V14.2334C-0.0650036 7.01874 5.36525 3.92657 12.5636 5.39063V5.39063C19.1032 6.72082 26.793 12.8139 31.5933 8.98285V8.98285C35.0713 6.20652 32.6022 2.36885 26.326 0.540865V0.540865C24.1641 0.18864 21.8171 0.0405273 19.3667 0.0405273Z" stroke="#262626" stroke-width="4"/>
</g>
<mask id="mask2_14_71" style="mask-type:alpha" maskUnits="userSpaceOnUse" x="1" y="12" width="23" height="27">
<path fill-rule="evenodd" clip-rule="evenodd" d="M2.62068 14.6861C0.0576363 19.4435 1.70134 28.2036 6.39524 34.7858V34.7858C8.16976 37.2067 9.95421 38.6305 11.5077 38.6356V38.6356H11.5219C12.6343 38.6331 13.6278 37.9012 14.4137 36.2846V36.2846C15.5154 34.0188 17.1561 31.6122 19.0954 31.6122V31.6122C20.9606 31.6122 22.549 33.8379 23.6479 36.0238V36.0238C21.0367 30.7459 20.1348 24.1118 15.7946 18.3299V18.3299C12.2951 13.668 9.23467 12.0827 6.89554 12.0825V12.0825C4.86685 12.0824 3.38086 13.2745 2.62068 14.6861" fill="white"/>
</mask>
<g mask="url(#mask2_14_71)">
<path d="M2.62068 14.6861C0.0576363 19.4435 1.70134 28.2036 6.39524 34.7858V34.7858C8.16976 37.2067 9.95421 38.6305 11.5077 38.6356V38.6356H11.5219C12.6343 38.6331 13.6278 37.9012 14.4137 36.2846V36.2846C15.5154 34.0188 17.1561 31.6122 19.0954 31.6122V31.6122C20.9606 31.6122 22.549 33.8379 23.6479 36.0238V36.0238C21.0367 30.7459 20.1348 24.1118 15.7946 18.3299V18.3299C12.2951 13.668 9.23467 12.0827 6.89554 12.0825V12.0825C4.86685 12.0824 3.38086 13.2745 2.62068 14.6861" stroke="#262626" stroke-width="4"/>
</g>
</svg>
