<svg width="44" height="39" viewBox="0 0 44 39" fill="none" xmlns="http://www.w3.org/2000/svg">
<path d="M39.875 0.25C41.0208 0.25 41.9948 0.651042 42.7969 1.45312C43.599 2.25521 44 3.22917 44 4.375V25C44 28.7812 42.6536 32.0182 39.9609 34.7109C37.2682 37.4036 34.0312 38.75 30.25 38.75H29.5625C28.9896 38.75 28.5026 38.5495 28.1016 38.1484C27.7005 37.7474 27.5 37.2604 27.5 36.6875V32.5625C27.5 31.9896 27.7005 31.5026 28.1016 31.1016C28.5026 30.7005 28.9896 30.5 29.5625 30.5H30.25C31.7396 30.5 33.0286 29.9557 34.1172 28.8672C35.2057 27.7786 35.75 26.4896 35.75 25V19.5H28.875C27.7292 19.5 26.7552 19.099 25.9531 18.2969C25.151 17.4948 24.75 16.5208 24.75 15.375V4.375C24.75 3.22917 25.151 2.25521 25.9531 1.45312C26.7552 0.651042 27.7292 0.25 28.875 0.25H39.875ZM15.125 0.25C16.2708 0.25 17.2448 0.651042 18.0469 1.45312C18.849 2.25521 19.25 3.22917 19.25 4.375V25C19.25 28.7812 17.9036 32.0182 15.2109 34.7109C12.5182 37.4036 9.28125 38.75 5.5 38.75H4.8125C4.23958 38.75 3.7526 38.5495 3.35156 38.1484C2.95052 37.7474 2.75 37.2604 2.75 36.6875V32.5625C2.75 31.9896 2.95052 31.5026 3.35156 31.1016C3.7526 30.7005 4.23958 30.5 4.8125 30.5H5.5C6.98958 30.5 8.27865 29.9557 9.36719 28.8672C10.4557 27.7786 11 26.4896 11 25V19.5H4.125C2.97917 19.5 2.00521 19.099 1.20312 18.2969C0.401042 17.4948 0 16.5208 0 15.375V4.375C0 3.22917 0.401042 2.25521 1.20312 1.45312C2.00521 0.651042 2.97917 0.25 4.125 0.25H15.125Z" fill="white"/>
</svg>
