<svg width="163" height="100" viewBox="0 0 163 100" fill="none" xmlns="http://www.w3.org/2000/svg">
<g opacity="0.7">
<mask id="mask0_20_140" style="mask-type:alpha" maskUnits="userSpaceOnUse" x="0" y="0" width="163" height="100">
<rect width="163" height="100" fill="white"/>
</mask>
<g mask="url(#mask0_20_140)">
<mask id="mask1_20_140" style="mask-type:alpha" maskUnits="userSpaceOnUse" x="32" y="82" width="9" height="12">
<path fill-rule="evenodd" clip-rule="evenodd" d="M32 82.4872H40.8397V93.4366H32V82.4872Z" fill="white"/>
</mask>
<g mask="url(#mask1_20_140)">
<path fill-rule="evenodd" clip-rule="evenodd" d="M37.2916 93.4366C35.5684 93.4366 34.2558 92.9623 33.3534 92.0132C32.4512 91.0642 32 89.7164 32 87.9695C32 87.1012 32.1377 86.3263 32.413 85.6449C32.6881 84.9633 33.0654 84.3879 33.5447 83.9183C34.0238 83.4489 34.5947 83.0931 35.2575 82.8507C35.9201 82.6084 36.6389 82.4872 37.4138 82.4872C37.8624 82.4872 38.2704 82.5201 38.6374 82.5856C39.0044 82.6515 39.3256 82.727 39.601 82.8127C39.8761 82.8987 40.1056 82.9869 40.2891 83.0778C40.4726 83.1686 40.605 83.2395 40.6867 83.2898L39.9984 85.198C39.672 85.0266 39.2924 84.88 38.8591 84.7589C38.4256 84.6376 37.9339 84.5772 37.3832 84.5772C37.0162 84.5772 36.6569 84.6376 36.3051 84.7589C35.9534 84.88 35.6422 85.0746 35.3723 85.342C35.1019 85.6095 34.8852 85.9552 34.7222 86.3793C34.5591 86.8034 34.4775 87.3184 34.4775 87.924C34.4775 88.4086 34.5311 88.8606 34.6382 89.2795C34.7452 89.6987 34.9185 90.0595 35.1582 90.3623C35.3975 90.6652 35.7111 90.9052 36.0986 91.0817C36.486 91.2583 36.9552 91.3468 37.5057 91.3468C37.8521 91.3468 38.1633 91.3266 38.4386 91.2862C38.7138 91.246 38.9585 91.1979 39.1726 91.1423C39.3867 91.0869 39.5753 91.0237 39.7385 90.9529C39.9015 90.8825 40.0494 90.8168 40.182 90.7562L40.8397 92.6491C40.5032 92.8512 40.029 93.0331 39.4173 93.1943C38.8056 93.3557 38.0968 93.4366 37.2916 93.4366" fill="#1E2023"/>
</g>
<path fill-rule="evenodd" clip-rule="evenodd" d="M46.9593 85.0476C46.9063 85.2025 46.8289 85.4133 46.727 85.6799C46.6251 85.9467 46.5093 86.2549 46.379 86.6046C46.2489 86.9541 46.1034 87.3389 45.9425 87.7593C45.7819 88.1795 45.6184 88.6201 45.4524 89.0814H48.4645C48.3032 88.6188 48.1472 88.1767 47.9961 87.7551C47.8451 87.3336 47.7014 86.9481 47.5656 86.5982C47.4294 86.2487 47.3103 85.9408 47.2077 85.6741C47.105 85.4079 47.0222 85.199 46.9593 85.0476V85.0476ZM49.808 93.3002C49.6907 92.9294 49.5648 92.5486 49.4299 92.1579C49.295 91.7672 49.1606 91.378 49.0269 90.9907H44.913C44.7801 91.3799 44.6466 91.7699 44.513 92.161C44.3794 92.5522 44.255 92.9321 44.1397 93.3002H41.6774C42.0739 92.1507 42.4498 91.0884 42.8055 90.113C43.1614 89.1379 43.5092 88.2193 43.8498 87.3569C44.1904 86.4947 44.5257 85.6763 44.8561 84.9013C45.1864 84.1264 45.5296 83.3692 45.8853 82.6302H48.1329C48.4789 83.3692 48.82 84.1264 49.1561 84.9013C49.4919 85.6763 49.8305 86.4947 50.1716 87.3569C50.5126 88.2193 50.8613 89.1379 51.2174 90.113C51.5737 91.0884 51.9504 92.1507 52.3474 93.3002H49.808Z" fill="#1E2023"/>
<path fill-rule="evenodd" clip-rule="evenodd" d="M57.0836 84.4066C56.9097 84.4066 56.7541 84.4117 56.6163 84.4217C56.4785 84.4319 56.3483 84.4421 56.2257 84.452V87.3137H56.8998C57.7981 87.3137 58.4414 87.2022 58.8297 86.9788C59.2176 86.7558 59.4118 86.3752 59.4118 85.8372C59.4118 85.3198 59.215 84.9521 58.822 84.7338C58.4288 84.5156 57.8493 84.4066 57.0836 84.4066M56.9457 82.3821C58.5387 82.3821 59.7588 82.6637 60.6066 83.2269C61.4539 83.79 61.8778 84.6651 61.8778 85.8526C61.8778 86.5934 61.7068 87.1946 61.3647 87.6562C61.0224 88.1181 60.5299 88.4807 59.8866 88.7445C60.101 89.0085 60.3256 89.3103 60.5605 89.6502C60.7954 89.9904 61.0277 90.3453 61.2575 90.7157C61.4872 91.0862 61.7094 91.4718 61.9237 91.8725C62.1381 92.2735 62.3373 92.6665 62.5211 93.0521H59.8499C59.6551 92.7072 59.4577 92.3573 59.2578 92.0018C59.058 91.6469 58.8531 91.3017 58.643 90.9668C58.4329 90.632 58.2251 90.3149 58.0203 90.0155C57.8151 89.7164 57.6101 89.4446 57.4052 89.2012H56.2257V93.0521H53.8362V82.6561C54.3571 82.5548 54.8955 82.4837 55.4521 82.4429C56.0086 82.4025 56.5064 82.3821 56.9457 82.3821" fill="#1E2023"/>
<path fill-rule="evenodd" clip-rule="evenodd" d="M64.0099 93.3002V82.6302H71.1054V84.6473H66.3751V86.7413H70.5748V88.712H66.3751V91.2832H71.4541V93.3002H64.0099Z" fill="#1E2023"/>
<path fill-rule="evenodd" clip-rule="evenodd" d="M79.5155 82.6302H81.8759V93.3002H79.5155V88.7736H75.5514V93.3002H73.191V82.6302H75.5514V86.7104H79.5155V82.6302Z" fill="#1E2023"/>
<path fill-rule="evenodd" clip-rule="evenodd" d="M84.3573 93.3002V82.6302H91.4529V84.6473H86.7225V86.7413H90.9223V88.712H86.7225V91.2832H91.8015V93.3002H84.3573Z" fill="#1E2023"/>
<path fill-rule="evenodd" clip-rule="evenodd" d="M97.8278 85.0476C97.7748 85.2025 97.6974 85.4133 97.5955 85.6799C97.4936 85.9467 97.3776 86.2549 97.2476 86.6046C97.1174 86.9541 96.9718 87.3389 96.8112 87.7593C96.6502 88.1795 96.4869 88.6201 96.3208 89.0814H99.333C99.1717 88.6188 99.0157 88.1767 98.8646 87.7551C98.7135 87.3336 98.5699 86.9481 98.4341 86.5982C98.2979 86.2487 98.1787 85.9408 98.0762 85.6741C97.9736 85.4079 97.8908 85.199 97.8278 85.0476V85.0476ZM100.676 93.3002C100.559 92.9294 100.433 92.5486 100.298 92.1579C100.163 91.7672 100.029 91.378 99.8953 90.9907H95.7814C95.6484 91.3799 95.515 91.7699 95.3815 92.161C95.2479 92.5522 95.1234 92.9321 95.0083 93.3002H92.5459C92.9424 92.1507 93.3183 91.0884 93.674 90.113C94.0297 89.1379 94.3777 88.2193 94.7183 87.3569C95.0588 86.4947 95.3942 85.6763 95.7245 84.9013C96.0548 84.1264 96.3981 83.3692 96.7538 82.6302H99.0013C99.3474 83.3692 99.6884 84.1264 100.025 84.9013C100.36 85.6763 100.699 86.4947 101.04 87.3569C101.381 88.2193 101.73 89.1379 102.086 90.113C102.442 91.0884 102.819 92.1507 103.216 93.3002H100.676Z" fill="#1E2023"/>
<path fill-rule="evenodd" clip-rule="evenodd" d="M111.653 91.2371V93.3002H104.705V82.6302H107.046V91.2371H111.653Z" fill="#1E2023"/>
<path fill-rule="evenodd" clip-rule="evenodd" d="M119.841 82.6302V84.6781H116.679V93.3002H114.319V84.6781H111.156V82.6302H119.841Z" fill="#1E2023"/>
<path fill-rule="evenodd" clip-rule="evenodd" d="M127.903 82.6302H130.263V93.3002H127.903V88.7736H123.939V93.3002H121.578V82.6302H123.939V86.7104H127.903V82.6302Z" fill="#1E2023"/>
<path fill-rule="evenodd" clip-rule="evenodd" d="M58.5509 99.1279V99.7518H56.3176V96.526H57.07V99.1279H58.5509Z" fill="#1E2023"/>
<mask id="mask2_20_140" style="mask-type:alpha" maskUnits="userSpaceOnUse" x="32" y="0" width="99" height="100">
<path fill-rule="evenodd" clip-rule="evenodd" d="M32 100H130.263V0H32V100Z" fill="white"/>
</mask>
<g mask="url(#mask2_20_140)">
<path fill-rule="evenodd" clip-rule="evenodd" d="M61.2804 99.7518H62.0248V96.526H61.2804V99.7518Z" fill="#1E2023"/>
<path fill-rule="evenodd" clip-rule="evenodd" d="M67.3258 99.7518C67.1025 99.3825 66.861 99.0179 66.6013 98.6579C66.3415 98.298 66.0649 97.9581 65.7719 97.6385V99.7518H65.0025V96.526H65.6371C65.747 96.6285 65.8685 96.7541 66.0017 96.9032C66.1349 97.0519 66.2706 97.2112 66.4088 97.3803C66.5472 97.5493 66.6845 97.7248 66.8211 97.9062C66.9576 98.0877 67.0859 98.2623 67.2059 98.4298V96.526H67.9802V99.7518H67.3258Z" fill="#1E2023"/>
<path fill-rule="evenodd" clip-rule="evenodd" d="M71.8496 99.3609C71.9578 99.3609 72.0469 99.3521 72.1174 99.3344C72.1878 99.317 72.2443 99.2929 72.2868 99.2625C72.3295 99.232 72.3589 99.1959 72.3754 99.1543C72.3917 99.1129 72.4 99.0663 72.4 99.015C72.4 98.9061 72.3475 98.8155 72.2428 98.7434C72.1377 98.6715 71.9578 98.5938 71.7023 98.5105C71.5908 98.4721 71.4793 98.4281 71.3681 98.3783C71.2566 98.3288 71.1567 98.2662 71.0683 98.191C70.9798 98.1157 70.9078 98.0244 70.852 97.917C70.7964 97.8098 70.7685 97.6792 70.7685 97.5255C70.7685 97.3718 70.7981 97.2332 70.857 97.1099C70.916 96.9865 70.9995 96.8816 71.1077 96.795C71.2157 96.7086 71.3467 96.6421 71.5007 96.5957C71.6546 96.5493 71.8283 96.526 72.0216 96.526C72.2509 96.526 72.449 96.55 72.6162 96.5981C72.7831 96.6462 72.9209 96.6991 73.0289 96.7568L72.8079 97.3477C72.7127 97.2997 72.6071 97.2573 72.4908 97.2204C72.3745 97.1836 72.2345 97.1652 72.0708 97.1652C71.8872 97.1652 71.7555 97.1899 71.6751 97.2395C71.5948 97.2893 71.5548 97.3653 71.5548 97.4678C71.5548 97.5287 71.5695 97.58 71.599 97.6216C71.6284 97.6632 71.6702 97.7009 71.7243 97.7344C71.7782 97.7681 71.8404 97.7986 71.911 97.8257C71.9814 97.853 72.0592 97.881 72.1445 97.9098C72.3213 97.9739 72.4752 98.0372 72.6063 98.0997C72.7373 98.162 72.8462 98.235 72.933 98.3184C73.0199 98.4016 73.0847 98.4993 73.1272 98.6114C73.1698 98.7235 73.191 98.8596 73.191 99.0198C73.191 99.3306 73.0797 99.5715 72.8569 99.7429C72.634 99.9142 72.2984 99.9999 71.8496 99.9999C71.6988 99.9999 71.5629 99.9912 71.4417 99.9736C71.3205 99.956 71.2132 99.9343 71.1198 99.9087C71.0264 99.883 70.9463 99.8559 70.8791 99.827C70.812 99.7982 70.7554 99.7711 70.7097 99.7453L70.9257 99.1496C71.0273 99.2041 71.1526 99.2529 71.3017 99.2962C71.4507 99.3394 71.6333 99.3609 71.8496 99.3609" fill="#1E2023"/>
<path fill-rule="evenodd" clip-rule="evenodd" d="M77.2733 99.9999C77.039 99.9999 76.8368 99.9662 76.6667 99.8993C76.4965 99.8321 76.3562 99.7388 76.2455 99.6192C76.1348 99.4996 76.0529 99.3571 76 99.1915C75.947 99.0263 75.9206 98.8436 75.9206 98.6437V96.526H76.6715V98.5799C76.6715 98.7174 76.6867 98.8348 76.7173 98.9313C76.7477 99.0279 76.7896 99.1066 76.8424 99.1671C76.8954 99.2278 76.9596 99.2711 77.035 99.2973C77.1104 99.3236 77.1932 99.3366 77.2829 99.3366C77.4659 99.3366 77.6144 99.2794 77.7283 99.1647C77.8422 99.0499 77.8992 98.855 77.8992 98.5799V96.526H78.6501V98.6437C78.6501 98.8436 78.6228 99.0272 78.5683 99.1941C78.5137 99.3612 78.4303 99.5044 78.318 99.624C78.2057 99.7437 78.0629 99.8362 77.8895 99.9018C77.7163 99.9671 77.5109 99.9999 77.2733 99.9999" fill="#1E2023"/>
<path fill-rule="evenodd" clip-rule="evenodd" d="M82.6484 97.1851C82.5938 97.1851 82.5449 97.1869 82.5016 97.1901C82.4583 97.1935 82.4173 97.1967 82.3789 97.2V98.1317H82.5905C82.873 98.1317 83.0751 98.0953 83.1971 98.0226C83.3191 97.9501 83.3801 97.8261 83.3801 97.651C83.3801 97.4825 83.3183 97.3628 83.1948 97.2916C83.0712 97.2206 82.8891 97.1851 82.6484 97.1851M82.6051 96.526C83.1057 96.526 83.4891 96.6177 83.7556 96.8011C84.0219 96.9844 84.1552 97.2694 84.1552 97.6558C84.1552 97.8972 84.1013 98.0929 83.9938 98.2431C83.8864 98.3935 83.7315 98.5115 83.5294 98.5975C83.5967 98.6835 83.6672 98.7816 83.7412 98.8923C83.8149 99.003 83.888 99.1187 83.9602 99.2393C84.0325 99.3599 84.1022 99.4855 84.1696 99.6159C84.237 99.7464 84.2996 99.8745 84.3573 99.9999H83.5178C83.4565 99.8877 83.3946 99.7737 83.3318 99.6579C83.2689 99.5425 83.2046 99.4299 83.1384 99.3211C83.0725 99.212 83.0072 99.1088 82.9427 99.0113C82.8783 98.9138 82.8138 98.8254 82.7494 98.7462H82.3789V99.9999H81.6278V96.6152C81.7915 96.5822 81.9608 96.5589 82.1357 96.5459C82.3106 96.5328 82.4671 96.526 82.6051 96.526" fill="#1E2023"/>
<path fill-rule="evenodd" clip-rule="evenodd" d="M88.5583 97.2568C88.5411 97.3036 88.5159 97.3674 88.4827 97.448C88.4495 97.5286 88.4118 97.6218 88.3694 97.7275C88.327 97.8333 88.2796 97.9495 88.2272 98.0766C88.1748 98.2038 88.1217 98.3369 88.0677 98.4763H89.0483C88.9958 98.3365 88.9451 98.2028 88.8959 98.0754C88.8467 97.948 88.7999 97.8314 88.7557 97.7257C88.7113 97.6201 88.6725 97.5268 88.6392 97.4463C88.6057 97.3658 88.5788 97.3025 88.5583 97.2568V97.2568ZM89.4858 99.7518C89.4476 99.6397 89.4066 99.5247 89.3627 99.4066C89.3187 99.2885 89.275 99.1706 89.2314 99.0535H87.892C87.8487 99.1712 87.8053 99.2892 87.762 99.4074C87.7183 99.5257 87.6779 99.6405 87.6403 99.7518H86.8387C86.9677 99.4043 87.0901 99.0831 87.206 98.7882C87.3217 98.4935 87.4351 98.2157 87.546 97.9551C87.6568 97.6943 87.766 97.4469 87.8735 97.2125C87.9811 96.9783 88.0929 96.7494 88.2086 96.526H88.9404C89.053 96.7494 89.1641 96.9783 89.2735 97.2125C89.3829 97.4469 89.493 97.6943 89.6041 97.9551C89.7152 98.2157 89.8287 98.4935 89.9447 98.7882C90.0606 99.0831 90.1833 99.4043 90.3126 99.7518H89.4858Z" fill="#1E2023"/>
<path fill-rule="evenodd" clip-rule="evenodd" d="M95.3654 99.7518C95.1422 99.3825 94.9007 99.0179 94.6409 98.6579C94.3812 98.298 94.1046 97.9581 93.8116 97.6385V99.7518H93.0422V96.526H93.6768C93.7866 96.6285 93.9082 96.7541 94.0414 96.9032C94.1746 97.0519 94.3103 97.2112 94.4485 97.3803C94.5869 97.5493 94.7241 97.7248 94.8608 97.9062C94.9973 98.0877 95.1256 98.2623 95.2455 98.4298V96.526H96.0198V99.7518H95.3654Z" fill="#1E2023"/>
<path fill-rule="evenodd" clip-rule="evenodd" d="M100.383 99.9999C99.8513 99.9999 99.446 99.8495 99.1673 99.5483C98.8888 99.2472 98.7494 98.8195 98.7494 98.2653C98.7494 97.9898 98.7919 97.744 98.877 97.5278C98.9619 97.3116 99.0783 97.129 99.2263 96.9801C99.3744 96.8311 99.5505 96.7182 99.7553 96.6413C99.9599 96.5644 100.182 96.526 100.421 96.526C100.56 96.526 100.686 96.5364 100.799 96.5572C100.912 96.578 101.011 96.6022 101.096 96.6293C101.181 96.6566 101.252 96.6845 101.309 96.7133C101.366 96.7423 101.406 96.7647 101.432 96.7805L101.219 97.386C101.118 97.3316 101.001 97.2852 100.867 97.2468C100.734 97.2082 100.582 97.1891 100.412 97.1891C100.298 97.1891 100.187 97.2082 100.079 97.2468C99.9701 97.2852 99.8741 97.3469 99.7907 97.4317C99.7072 97.5167 99.6402 97.6263 99.59 97.7608C99.5396 97.8955 99.5144 98.0587 99.5144 98.251C99.5144 98.4047 99.5309 98.5481 99.564 98.681C99.5972 98.8139 99.6506 98.9285 99.7246 99.0246C99.7985 99.1206 99.8953 99.1968 100.015 99.2528C100.135 99.3089 100.279 99.3369 100.449 99.3369C100.556 99.3369 100.652 99.3306 100.737 99.3177C100.823 99.305 100.898 99.2896 100.964 99.272C101.03 99.2544 101.089 99.2343 101.139 99.2119C101.189 99.1896 101.235 99.1687 101.276 99.1495L101.479 99.7501C101.375 99.8141 101.229 99.8719 101.04 99.9232C100.851 99.9743 100.632 99.9999 100.383 99.9999" fill="#1E2023"/>
<path fill-rule="evenodd" clip-rule="evenodd" d="M104.457 99.7518V96.526H106.585V97.1358H105.166V97.7689H106.426V98.3648H105.166V99.142H106.69V99.7518H104.457Z" fill="#1E2023"/>
<path fill-rule="evenodd" clip-rule="evenodd" d="M110.252 42.5839L99.5587 39.6083C99.7065 38.6692 99.7836 37.7065 99.7836 36.7252C99.7836 35.744 99.7065 34.7822 99.5587 33.8441L110.251 30.8654L110.279 30.8952C113.486 34.1335 113.477 39.3569 110.252 42.5839V42.5839ZM97.6516 61.283L92.1933 51.6163C93.7564 50.479 95.133 49.1036 96.2691 47.5415L105.938 52.9979V53.0369C105.915 57.594 102.214 61.283 97.6516 61.283V61.283ZM81.3801 51.6512C73.1359 51.6512 66.4531 44.9682 66.4531 36.7252C66.4531 28.4811 73.1359 21.7981 81.3801 21.7981C89.6231 21.7981 96.3071 28.4811 96.3071 36.7252C96.3071 44.9682 89.6231 51.6512 81.3801 51.6512V51.6512ZM87.209 65.6237C83.9717 68.8312 78.7462 68.822 75.5213 65.596L78.4959 54.9028C79.4361 55.0506 80.3977 55.1266 81.3801 55.1266C82.3603 55.1266 83.321 55.0506 84.2602 54.9028L87.2376 65.5948L87.209 65.6237ZM65.1075 61.282H65.0674C60.5101 61.2594 56.8213 57.5591 56.8213 52.9979L66.4878 47.5384C67.6251 49.1005 69.0006 50.4759 70.5638 51.6132L65.1075 61.282ZM52.5093 42.5829L52.4806 42.5541C49.272 39.3168 49.2823 34.0914 52.5093 30.8654L63.2024 33.84C63.0546 34.7801 62.9766 35.744 62.9766 36.7252C62.9766 37.7043 63.0536 38.6671 63.2015 39.6053L52.5093 42.5829ZM65.1075 12.1663L70.5658 21.8341C69.0036 22.9693 67.6272 24.3457 66.491 25.9078L56.8223 20.4526V20.4114C56.8448 15.8532 60.545 12.1663 65.1075 12.1663V12.1663ZM75.5501 7.82559C78.7874 4.6181 84.0139 4.6273 87.2388 7.85334L84.2632 18.5464C83.3241 18.3988 82.3613 18.3206 81.3801 18.3206C80.4009 18.3206 79.4381 18.3988 78.5 18.5455L75.5213 7.85436L75.5501 7.82559ZM97.6516 12.1673H97.6937V12.1663C102.251 12.1879 105.939 15.89 105.939 20.4526L96.2712 25.9109C95.1359 24.3478 93.7585 22.9724 92.1962 21.8361L97.6516 12.1673ZM113.989 26.7916L111.462 24.2645V20.4526C111.462 12.8387 105.023 6.66477 97.4156 6.6433L93.8407 6.64213L91.1452 3.94692C85.7608 -1.4356 76.8424 -1.24883 71.4464 4.11516L68.9194 6.64213H65.1075C57.4936 6.64213 51.3208 13.0809 51.2981 20.6886V24.2635L48.6028 26.9588C43.2194 32.3434 43.4062 41.2608 48.7701 46.6567L51.2981 49.1848V52.9979C51.2981 60.6098 57.7357 66.7835 65.3435 66.806H68.9194L71.6148 69.5014C76.9973 74.8848 85.9168 74.6981 91.3105 69.3342L93.8407 66.806H97.6516C105.265 66.806 111.439 60.3684 111.462 52.7607V49.1857L114.155 46.4893C119.541 41.1069 119.353 32.1875 113.989 26.7916V26.7916Z" fill="#1E2023"/>
</g>
</g>
</g>
</svg>
