<svg width="163" height="100" viewBox="0 0 163 100" fill="none" xmlns="http://www.w3.org/2000/svg">
<mask id="mask0_20_202" style="mask-type:alpha" maskUnits="userSpaceOnUse" x="0" y="0" width="163" height="100">
<rect width="163" height="100" fill="white"/>
</mask>
<g mask="url(#mask0_20_202)">
<path fill-rule="evenodd" clip-rule="evenodd" d="M47.5767 90.9611C47.6922 90.9717 47.826 90.9795 47.9783 90.9847C48.1304 90.9901 48.3117 90.9927 48.5218 90.9927C49.7504 90.9927 50.6613 90.683 51.2546 90.0632C51.8479 89.4436 52.1447 88.5881 52.1447 87.4957C52.1447 86.3513 51.8611 85.485 51.294 84.8967C50.727 84.3088 49.8292 84.0147 48.6005 84.0147C48.4325 84.0147 48.2592 84.0174 48.0807 84.0225C47.902 84.0279 47.7341 84.0409 47.5767 84.0619V90.9611ZM54.6806 87.4957C54.6806 88.4408 54.5335 89.2654 54.2396 89.9688C53.9454 90.6724 53.5281 91.2551 52.9874 91.7172C52.4464 92.1794 51.7875 92.5258 51.0106 92.7568C50.2332 92.9877 49.3617 93.1032 48.3958 93.1032C47.9546 93.1032 47.4402 93.0848 46.8521 93.0482C46.2638 93.0114 45.6865 92.9355 45.1194 92.8198V82.1875C45.6865 82.0827 46.2771 82.0118 46.8916 81.9749C47.5058 81.9382 48.0335 81.9198 48.4746 81.9198C49.4089 81.9198 50.2569 82.0248 51.0184 82.2347C51.7797 82.4448 52.4334 82.7756 52.9795 83.2272C53.5254 83.6788 53.9454 84.2563 54.2396 84.9598C54.5335 85.6634 54.6806 86.5088 54.6806 87.4957V87.4957Z" fill="#1E2023" fill-opacity="0.7"/>
<path fill-rule="evenodd" clip-rule="evenodd" d="M56.7283 92.9615V82.0457H64.1001V84.1092H59.1856V86.2514H63.5488V88.2675H59.1856V90.898H64.4624V92.9615H56.7283Z" fill="#1E2023" fill-opacity="0.7"/>
<path fill-rule="evenodd" clip-rule="evenodd" d="M73.5981 92.9615C72.8943 91.712 72.1332 90.4781 71.3141 89.2598C70.4951 88.0419 69.6233 86.892 68.6993 85.8104V92.9615H66.2735V82.0457H68.2741C68.6206 82.3923 69.0038 82.8174 69.4239 83.3215C69.8438 83.8256 70.2718 84.3639 70.7076 84.936C71.1433 85.5086 71.5765 86.1018 72.0071 86.7161C72.4376 87.3303 72.842 87.9209 73.2201 88.488V82.0457H75.6616V92.9615H73.5981Z" fill="#1E2023" fill-opacity="0.7"/>
<path fill-rule="evenodd" clip-rule="evenodd" d="M86.278 82.0457V84.1407H82.9859V92.9615H80.5287V84.1407H77.2367V82.0457H86.278Z" fill="#1E2023" fill-opacity="0.7"/>
<path fill-rule="evenodd" clip-rule="evenodd" d="M91.287 84.0147C91.1083 84.0147 90.9326 84.02 90.7593 84.0304C90.5861 84.0409 90.4363 84.0515 90.3104 84.0618V87.2121H91.0822C91.9329 87.2121 92.5732 87.0969 93.004 86.8657C93.4345 86.6348 93.6499 86.2041 93.6499 85.5741C93.6499 85.2696 93.5946 85.0176 93.4844 84.8179C93.3741 84.6186 93.2167 84.4583 93.0118 84.3376C92.8071 84.217 92.5575 84.1328 92.2637 84.0856C91.9696 84.0382 91.6439 84.0147 91.287 84.0147M91.1295 81.9197C92.7571 81.9197 94.0065 82.206 94.8784 82.7782C95.7499 83.3506 96.1858 84.2879 96.1858 85.5897C96.1858 86.9025 95.7448 87.8501 94.8626 88.433C93.9805 89.0158 92.7203 89.3072 91.0822 89.3072H90.3104V92.9615H87.8531V82.2032C88.3887 82.0984 88.9558 82.0248 89.5543 81.9826C90.1529 81.9408 90.6778 81.9197 91.1295 81.9197" fill="#1E2023" fill-opacity="0.7"/>
<path fill-rule="evenodd" clip-rule="evenodd" d="M101.336 84.0147C101.158 84.0147 100.998 84.02 100.856 84.0304C100.714 84.0409 100.58 84.0515 100.454 84.0618V87.0231H101.147C102.071 87.0231 102.733 86.9078 103.132 86.6765C103.531 86.4458 103.731 86.052 103.731 85.4952C103.731 84.9598 103.528 84.5793 103.124 84.3533C102.72 84.1275 102.124 84.0147 101.336 84.0147M101.195 81.9197C102.833 81.9197 104.088 82.2111 104.959 82.7939C105.831 83.3767 106.267 84.2823 106.267 85.5111C106.267 86.2777 106.091 86.8999 105.739 87.3776C105.387 87.8556 104.881 88.2308 104.219 88.5038C104.439 88.777 104.67 89.0894 104.912 89.4411C105.154 89.7931 105.393 90.1604 105.629 90.5437C105.865 90.9271 106.093 91.3262 106.314 91.7408C106.534 92.1557 106.739 92.5625 106.928 92.9615H104.181C103.981 92.6046 103.778 92.2425 103.572 91.8746C103.367 91.5073 103.156 91.1501 102.94 90.8035C102.724 90.4571 102.51 90.1289 102.3 89.8191C102.089 89.5096 101.878 89.2283 101.667 88.9764H100.454V92.9615H97.9971V82.2032C98.5327 82.0984 99.0865 82.0248 99.6589 81.9826C100.231 81.9408 100.743 81.9197 101.195 81.9197" fill="#1E2023" fill-opacity="0.7"/>
<path fill-rule="evenodd" clip-rule="evenodd" d="M110.283 87.4957C110.283 88.0313 110.349 88.5144 110.48 88.9447C110.612 89.3756 110.801 89.7458 111.047 90.0554C111.294 90.3651 111.596 90.6041 111.953 90.772C112.31 90.9402 112.719 91.024 113.182 91.024C113.633 91.024 114.04 90.9402 114.402 90.772C114.765 90.6041 115.069 90.3651 115.316 90.0554C115.563 89.7458 115.752 89.3756 115.883 88.9447C116.014 88.5144 116.08 88.0313 116.08 87.4957C116.08 86.9601 116.014 86.4744 115.883 86.0387C115.752 85.6031 115.563 85.2301 115.316 84.9204C115.069 84.6108 114.765 84.3717 114.402 84.2037C114.04 84.0358 113.633 83.9516 113.182 83.9516C112.719 83.9516 112.31 84.0382 111.953 84.2115C111.596 84.3848 111.294 84.6265 111.047 84.936C110.801 85.2459 110.612 85.6189 110.48 86.0544C110.349 86.4903 110.283 86.9708 110.283 87.4957M118.616 87.4957C118.616 88.4304 118.477 89.2521 118.199 89.9608C117.92 90.6696 117.539 91.2631 117.056 91.7408C116.573 92.2186 115.999 92.5782 115.332 92.8198C114.665 93.0612 113.948 93.182 113.182 93.182C112.436 93.182 111.733 93.0612 111.071 92.8198C110.409 92.5782 109.832 92.2186 109.338 91.7408C108.845 91.2631 108.456 90.6696 108.173 89.9608C107.889 89.2521 107.747 88.4304 107.747 87.4957C107.747 86.5613 107.894 85.7393 108.188 85.0305C108.482 84.3218 108.879 83.726 109.378 83.2427C109.876 82.7599 110.454 82.3977 111.11 82.156C111.766 81.9145 112.457 81.7936 113.182 81.7936C113.927 81.7936 114.631 81.9145 115.292 82.156C115.954 82.3977 116.531 82.7599 117.025 83.2427C117.518 83.726 117.907 84.3218 118.191 85.0305C118.474 85.7393 118.616 86.5613 118.616 87.4957" fill="#1E2023" fill-opacity="0.7"/>
<path fill-rule="evenodd" clip-rule="evenodd" d="M69.7876 99.9348C69.2304 99.9348 68.8058 99.7799 68.514 99.4699C68.2223 99.1599 68.0763 98.7197 68.0763 98.1492C68.0763 97.8657 68.1208 97.6126 68.2099 97.3901C68.2989 97.1675 68.4208 96.9796 68.5758 96.8263C68.7309 96.6729 68.9153 96.5568 69.1298 96.4776C69.3441 96.3984 69.5766 96.3589 69.8271 96.3589C69.9722 96.3589 70.1042 96.3696 70.2229 96.391C70.3416 96.4124 70.4453 96.4373 70.5345 96.4652C70.6235 96.4933 70.6977 96.5221 70.757 96.5516C70.8164 96.5815 70.8591 96.6046 70.8856 96.6209L70.663 97.2441C70.5574 97.1881 70.4346 97.1403 70.2945 97.1008C70.1544 97.0611 69.9953 97.0414 69.8173 97.0414C69.6986 97.0414 69.5823 97.0611 69.4686 97.1008C69.3548 97.1403 69.2542 97.2038 69.1669 97.2912C69.0794 97.3786 69.0093 97.4915 68.9567 97.6299C68.9039 97.7685 68.8775 97.9366 68.8775 98.1345C68.8775 98.2927 68.8948 98.4403 68.9295 98.5771C68.9642 98.7139 69.0202 98.8319 69.0977 98.9308C69.1751 99.0296 69.2764 99.1081 69.4018 99.1657C69.5271 99.2234 69.6788 99.2523 69.8568 99.2523C69.9689 99.2523 70.0695 99.2458 70.1585 99.2325C70.2476 99.2194 70.3266 99.2035 70.396 99.1854C70.4653 99.1673 70.5262 99.1467 70.579 99.1236C70.6316 99.1007 70.6796 99.0791 70.7224 99.0593L70.9351 99.6776C70.8262 99.7435 70.6729 99.8029 70.4751 99.8557C70.2773 99.9084 70.0481 99.9348 69.7876 99.9348" fill="#1E2023" fill-opacity="0.7"/>
<path fill-rule="evenodd" clip-rule="evenodd" d="M76.0935 99.2027V99.8656H73.8036V96.438H74.5751V99.2027H76.0935Z" fill="#1E2023" fill-opacity="0.7"/>
<mask id="mask1_20_202" style="mask-type:alpha" maskUnits="userSpaceOnUse" x="44" y="0" width="76" height="100">
<path fill-rule="evenodd" clip-rule="evenodd" d="M44 99.9347H119.735V0H44V99.9347Z" fill="white"/>
</mask>
<g mask="url(#mask1_20_202)">
<path fill-rule="evenodd" clip-rule="evenodd" d="M78.962 99.8655H79.7335V96.4379H78.962V99.8655Z" fill="#1E2023" fill-opacity="0.7"/>
<path fill-rule="evenodd" clip-rule="evenodd" d="M85.1988 99.8655C84.9778 99.473 84.7387 99.0857 84.4816 98.7032C84.2244 98.3207 83.9507 97.9596 83.6606 97.6199V99.8655H82.8989V96.4379H83.5271C83.6359 96.5468 83.7562 96.6802 83.8881 96.8386C84.0199 96.9967 84.1543 97.1659 84.2911 97.3456C84.428 97.5252 84.5639 97.7116 84.6992 97.9044C84.8344 98.0973 84.9614 98.2828 85.0801 98.4608V96.4379H85.8466V99.8655H85.1988Z" fill="#1E2023" fill-opacity="0.7"/>
<path fill-rule="evenodd" clip-rule="evenodd" d="M89.0119 99.8655H89.7834V96.4379H89.0119V99.8655Z" fill="#1E2023" fill-opacity="0.7"/>
<path fill-rule="evenodd" clip-rule="evenodd" d="M94.5116 99.9348C93.9545 99.9348 93.5299 99.7799 93.238 99.4699C92.9463 99.1599 92.8003 98.7197 92.8003 98.1492C92.8003 97.8657 92.8448 97.6126 92.934 97.3901C93.0229 97.1675 93.1448 96.9796 93.2999 96.8263C93.4549 96.6729 93.6394 96.5568 93.8539 96.4776C94.0682 96.3984 94.3006 96.3589 94.5512 96.3589C94.6963 96.3589 94.8282 96.3696 94.9469 96.391C95.0656 96.4124 95.1694 96.4373 95.2585 96.4652C95.3475 96.4933 95.4217 96.5221 95.481 96.5516C95.5404 96.5815 95.5831 96.6046 95.6097 96.6209L95.3871 97.2441C95.2815 97.1881 95.1587 97.1403 95.0186 97.1008C94.8785 97.0611 94.7193 97.0414 94.5413 97.0414C94.4226 97.0414 94.3064 97.0611 94.1926 97.1008C94.0789 97.1403 93.9783 97.2038 93.891 97.2912C93.8035 97.3786 93.7334 97.4915 93.6807 97.6299C93.6279 97.7685 93.6015 97.9366 93.6015 98.1345C93.6015 98.2927 93.6189 98.4403 93.6536 98.5771C93.6883 98.7139 93.7442 98.8319 93.8217 98.9308C93.8991 99.0296 94.0005 99.1081 94.1258 99.1657C94.2512 99.2234 94.4029 99.2523 94.5809 99.2523C94.6929 99.2523 94.7935 99.2458 94.8825 99.2325C94.9717 99.2194 95.0507 99.2035 95.1201 99.1854C95.1893 99.1673 95.2502 99.1467 95.303 99.1236C95.3557 99.1007 95.4036 99.0791 95.4465 99.0593L95.6591 99.6776C95.5502 99.7435 95.397 99.8029 95.1991 99.8557C95.0014 99.9084 94.7721 99.9348 94.5116 99.9348" fill="#1E2023" fill-opacity="0.7"/>
<path fill-rule="evenodd" clip-rule="evenodd" d="M94.5036 50.4572C99.7391 50.4572 103.983 54.7005 103.983 59.936C103.983 65.1716 99.7391 69.4158 94.5036 69.4158C89.2689 69.4158 85.0247 65.1716 85.0247 59.937H85.0311V59.6098C85.2029 54.5261 89.378 50.4572 94.5036 50.4572V50.4572ZM59.7994 59.9824C54.5638 59.9824 50.3205 55.7382 50.3205 50.5036C50.3205 45.268 54.5638 41.0247 59.7994 41.0247V41.0309H60.1264C65.2092 41.2029 69.2781 45.378 69.2781 50.5036C69.2781 55.7382 65.0348 59.9824 59.7994 59.9824V59.9824ZM69.2327 25.2772C63.9971 25.2772 59.7538 21.0339 59.7538 15.7983C59.7538 10.5637 63.9971 6.31946 69.2327 6.31946C74.4673 6.31946 78.7115 10.5637 78.7115 15.7983C78.7115 21.033 74.4673 25.2772 69.2327 25.2772V25.2772ZM103.937 15.7529C109.172 15.7529 113.416 19.9962 113.416 25.2318C113.416 30.4664 109.172 34.7107 103.937 34.7107C98.7015 34.7107 94.4582 30.4664 94.4582 25.2318C94.4582 19.9962 98.7015 15.7529 103.937 15.7529V15.7529ZM103.937 41.0309C112.662 41.0309 119.735 33.9573 119.735 25.2318C119.735 16.5062 112.662 9.43243 103.937 9.43243C95.2113 9.43243 88.1386 16.5062 88.1386 25.2318C88.1386 28.7881 89.3134 32.0701 91.297 34.7107H85.0311V15.7983C85.0311 7.07285 77.9575 0 69.2327 0C60.5071 0 53.4335 7.07285 53.4335 15.7983C53.4335 24.524 60.5071 31.5968 69.2327 31.5968C72.7891 31.5968 76.071 30.421 78.7115 28.4383V34.7107H60.2418C60.0955 34.7071 59.9474 34.7042 59.7994 34.7042C51.0738 34.7042 44 41.778 44 50.5036C44 59.2282 51.0738 66.3009 59.7994 66.3009C68.524 66.3009 75.5986 59.2282 75.5986 50.5036C75.5986 46.9499 74.4246 43.6698 72.4439 41.0309H78.7115V59.4935C78.7071 59.6407 78.7051 59.7879 78.7051 59.937C78.7051 68.6617 85.7789 75.7353 94.5036 75.7353C103.229 75.7353 110.302 68.6617 110.302 59.936C110.302 51.2106 103.229 44.1377 94.5036 44.1377C90.9499 44.1377 87.6706 45.3107 85.0311 47.2925V41.0309H103.937Z" fill="#1E2023" fill-opacity="0.7"/>
</g>
</g>
</svg>
