<svg width="163" height="100" viewBox="0 0 163 100" fill="none" xmlns="http://www.w3.org/2000/svg">
<g opacity="0.7">
<mask id="mask0_20_63" style="mask-type:alpha" maskUnits="userSpaceOnUse" x="0" y="0" width="163" height="100">
<rect width="163" height="100" fill="white"/>
</mask>
<g mask="url(#mask0_20_63)">
<path fill-rule="evenodd" clip-rule="evenodd" d="M42.0504 82.6122C42.2337 82.9477 42.4451 83.362 42.6847 83.8548C42.9241 84.3478 43.1737 84.8814 43.4337 85.4555C43.6936 86.0298 43.9508 86.6169 44.2057 87.2164C44.4603 87.8161 44.6997 88.3804 44.9242 88.9087C45.1483 88.3804 45.3878 87.8161 45.6426 87.2164C45.8972 86.6169 46.1546 86.0298 46.4145 85.4555C46.6743 84.8814 46.924 84.3478 47.1637 83.8548C47.4031 83.362 47.6146 82.9477 47.798 82.6122H49.9629C50.0642 83.3135 50.1584 84.0988 50.245 84.9677C50.3311 85.8367 50.4075 86.7414 50.4736 87.6814C50.5396 88.6217 50.6006 89.5642 50.6565 90.5096C50.7123 91.4547 50.7607 92.3442 50.8013 93.1774H48.4841C48.4536 92.151 48.4129 91.0331 48.3621 89.8233C48.3111 88.6139 48.2349 87.3944 48.1333 86.1644C47.9498 86.5913 47.7459 87.0639 47.5218 87.5823C47.2972 88.1007 47.0755 88.6189 46.8564 89.1373C46.6371 89.6557 46.4257 90.1513 46.2218 90.6239C46.0178 91.0964 45.8444 91.5005 45.7018 91.8358H44.0399C43.897 91.5005 43.7238 91.0964 43.5199 90.6239C43.3159 90.1513 43.1042 89.6557 42.8851 89.1373C42.6659 88.6189 42.4441 88.1007 42.22 87.5823C41.9956 87.0639 41.7917 86.5913 41.6082 86.1644C41.5064 87.3944 41.4302 88.6139 41.3796 89.8233C41.3286 91.0331 41.288 92.151 41.2575 93.1774H38.9403C38.9807 92.3442 39.0291 91.4547 39.0851 90.5096C39.1409 89.5642 39.2018 88.6217 39.268 87.6814C39.334 86.7414 39.4102 85.8367 39.4967 84.9677C39.5829 84.0988 39.6771 83.3135 39.7787 82.6122H42.0504Z" fill="#171A1E"/>
<path fill-rule="evenodd" clip-rule="evenodd" d="M52.9203 93.1774V82.6122H60.0553V84.6094H55.2987V86.6828H59.5217V88.6342H55.2987V91.1802H60.406V93.1774H52.9203Z" fill="#171A1E"/>
<path fill-rule="evenodd" clip-rule="evenodd" d="M64.5373 91.2413C64.6492 91.2515 64.7786 91.2591 64.9261 91.2641C65.0732 91.2693 65.2487 91.2718 65.4521 91.2718C66.6413 91.2718 67.5229 90.9721 68.0972 90.3723C68.6713 89.7725 68.9586 88.9445 68.9586 87.8871C68.9586 86.7796 68.6842 85.941 68.1353 85.3717C67.5865 84.8026 66.7175 84.5179 65.5283 84.5179C65.3657 84.5179 65.1979 84.5206 65.0252 84.5255C64.8522 84.5308 64.6897 84.5433 64.5373 84.5636V91.2413ZM71.4131 87.8871C71.4131 88.8019 71.2708 89.6 70.9862 90.2809C70.7016 90.9619 70.2976 91.5258 69.7743 91.9731C69.2506 92.4204 68.613 92.7558 67.861 92.9793C67.1086 93.2028 66.2651 93.3146 65.3302 93.3146C64.9032 93.3146 64.4052 93.2968 63.836 93.2613C63.2667 93.2257 62.7078 93.1523 62.1589 93.0403V82.7495C62.7078 82.648 63.2795 82.5794 63.8743 82.5436C64.4687 82.5082 64.9795 82.4904 65.4064 82.4904C66.3108 82.4904 67.1315 82.592 67.8686 82.7952C68.6054 82.9985 69.2381 83.3187 69.7667 83.7558C70.295 84.1928 70.7016 84.7518 70.9862 85.4327C71.2708 86.1137 71.4131 86.932 71.4131 87.8871V87.8871Z" fill="#171A1E"/>
<path fill-rule="evenodd" clip-rule="evenodd" d="M78.5481 84.4417C77.4402 84.4417 76.6398 84.7492 76.1469 85.3641C75.6538 85.9791 75.4075 86.82 75.4075 87.8873C75.4075 88.4055 75.4685 88.8757 75.5904 89.2975C75.7125 89.7192 75.8954 90.0826 76.1393 90.3876C76.3831 90.6924 76.6881 90.9287 77.0541 91.0965C77.4199 91.2641 77.8468 91.348 78.3347 91.348C78.5989 91.348 78.8249 91.3429 79.0131 91.3327C79.2011 91.3227 79.3662 91.3022 79.5087 91.2718V87.5975H81.8869V92.8268C81.6023 92.9388 81.1449 93.0581 80.5148 93.1851C79.8845 93.3121 79.1069 93.3756 78.1823 93.3756C77.3894 93.3756 76.6703 93.2537 76.0249 93.0097C75.3793 92.7659 74.8283 92.4102 74.3707 91.9426C73.9134 91.4753 73.5602 90.9008 73.3112 90.2198C73.062 89.5389 72.9377 88.7614 72.9377 87.8873C72.9377 87.003 73.075 86.2205 73.3494 85.5394C73.6237 84.8585 73.9996 84.2816 74.4776 83.809C74.9551 83.3365 75.5166 82.9782 76.1621 82.7343C76.8075 82.4903 77.4961 82.3683 78.228 82.3683C78.7258 82.3683 79.1756 82.4013 79.5772 82.4674C79.9786 82.5337 80.3243 82.6097 80.6139 82.696C80.9036 82.7826 81.1423 82.8714 81.3304 82.9629C81.5185 83.0543 81.6531 83.1255 81.7345 83.1763L81.0484 85.082C80.723 84.9093 80.3494 84.7595 79.9278 84.6324C79.5061 84.5054 79.0461 84.4417 78.5481 84.4417" fill="#171A1E"/>
<path fill-rule="evenodd" clip-rule="evenodd" d="M87.3295 84.518C87.1565 84.518 87.0018 84.5231 86.8646 84.5332C86.7273 84.5434 86.5977 84.5536 86.4758 84.5635V87.4298H87.1466C88.0409 87.4298 88.6812 87.3181 89.0675 87.0943C89.4538 86.871 89.6469 86.4898 89.6469 85.951C89.6469 85.4327 89.4511 85.0644 89.06 84.8457C88.6687 84.6272 88.0919 84.518 87.3295 84.518M87.1924 82.4902C88.7779 82.4902 89.9923 82.7723 90.8361 83.3364C91.6796 83.9005 92.1015 84.7769 92.1015 85.9663C92.1015 86.7083 91.9311 87.3105 91.5907 87.7729C91.25 88.2355 90.7599 88.5987 90.1195 88.8629C90.3329 89.1273 90.5564 89.4297 90.7903 89.7701C91.0241 90.1108 91.2554 90.4663 91.484 90.8372C91.7126 91.2083 91.9338 91.5946 92.1472 91.9959C92.3606 92.3975 92.5587 92.7913 92.7418 93.1774H90.083C89.8891 92.832 89.6926 92.4815 89.4938 92.1254C89.2948 91.7699 89.0908 91.4242 88.8818 91.0888C88.6726 90.7534 88.4659 90.4358 88.2619 90.1359C88.0577 89.8364 87.8536 89.5641 87.6497 89.3203H86.4758V93.1774H84.0974V82.7647C84.6158 82.6632 85.1519 82.592 85.7059 82.5511C86.2597 82.5107 86.7552 82.4902 87.1924 82.4902" fill="#171A1E"/>
<path fill-rule="evenodd" clip-rule="evenodd" d="M95.9891 87.8871C95.9891 88.4055 96.0526 88.8731 96.1798 89.2896C96.3068 89.7067 96.4897 90.065 96.7285 90.3647C96.9672 90.6644 97.2595 90.8958 97.6052 91.0582C97.9507 91.221 98.3469 91.3022 98.7944 91.3022C99.2312 91.3022 99.6252 91.221 99.976 91.0582C100.326 90.8958 100.621 90.6644 100.86 90.3647C101.099 90.065 101.282 89.7067 101.409 89.2896C101.536 88.8731 101.6 88.4055 101.6 87.8871C101.6 87.3687 101.536 86.8987 101.409 86.4769C101.282 86.0553 101.099 85.6943 100.86 85.3946C100.621 85.0949 100.326 84.8635 99.976 84.7009C99.6252 84.5384 99.2312 84.4569 98.7944 84.4569C98.3469 84.4569 97.9507 84.5407 97.6052 84.7085C97.2595 84.8762 96.9672 85.1101 96.7285 85.4096C96.4897 85.7096 96.3068 86.0706 96.1798 86.4921C96.0526 86.914 95.9891 87.3791 95.9891 87.8871M104.054 87.8871C104.054 88.7918 103.919 89.5871 103.65 90.2731C103.381 90.9591 103.012 91.5336 102.545 91.9959C102.077 92.4584 101.521 92.8064 100.875 93.0403C100.23 93.2739 99.5361 93.3908 98.7944 93.3908C98.0725 93.3908 97.3917 93.2739 96.7515 93.0403C96.1112 92.8064 95.552 92.4584 95.0744 91.9959C94.5966 91.5336 94.2207 90.9591 93.9462 90.2731C93.6717 89.5871 93.5347 88.7918 93.5347 87.8871C93.5347 86.9828 93.6769 86.1871 93.9614 85.5012C94.2459 84.8152 94.6296 84.2385 95.1125 83.7708C95.5951 83.3035 96.1542 82.9528 96.7894 82.719C97.4246 82.4852 98.0931 82.3682 98.7944 82.3682C99.5158 82.3682 100.197 82.4852 100.837 82.719C101.478 82.9528 102.036 83.3035 102.514 83.7708C102.992 84.2385 103.368 84.8152 103.642 85.5012C103.917 86.1871 104.054 86.9828 104.054 87.8871" fill="#171A1E"/>
<path fill-rule="evenodd" clip-rule="evenodd" d="M110.168 93.3909C109.425 93.3909 108.785 93.2865 108.246 93.0783C107.708 92.8703 107.263 92.5805 106.913 92.2093C106.562 91.8385 106.303 91.3963 106.135 90.883C105.967 90.3698 105.884 89.8031 105.884 89.1831V82.6122H108.262V88.9849C108.262 89.4117 108.31 89.7752 108.407 90.075C108.503 90.375 108.635 90.6189 108.803 90.8068C108.971 90.995 109.174 91.1296 109.413 91.2107C109.652 91.2922 109.913 91.3326 110.198 91.3326C110.777 91.3326 111.247 91.1551 111.608 90.799C111.969 90.4436 112.15 89.8386 112.15 88.9849V82.6122H114.528V89.1831C114.528 89.8031 114.441 90.3722 114.269 90.8906C114.096 91.409 113.832 91.8538 113.476 92.2246C113.12 92.5958 112.668 92.8828 112.119 93.0859C111.57 93.2893 110.919 93.3909 110.168 93.3909" fill="#171A1E"/>
<path fill-rule="evenodd" clip-rule="evenodd" d="M120.138 84.518C119.965 84.518 119.795 84.5231 119.627 84.5332C119.46 84.5434 119.315 84.5536 119.193 84.5635V87.6127H119.94C120.763 87.6127 121.383 87.5012 121.8 87.2774C122.216 87.0539 122.425 86.6371 122.425 86.0273C122.425 85.7326 122.371 85.4886 122.265 85.2953C122.158 85.1025 122.006 84.9473 121.807 84.8305C121.609 84.7137 121.368 84.6323 121.083 84.5866C120.799 84.5407 120.484 84.518 120.138 84.518M119.985 82.4902C121.561 82.4902 122.77 82.7673 123.614 83.3212C124.458 83.8752 124.879 84.7824 124.879 86.0424C124.879 87.313 124.453 88.2302 123.599 88.7943C122.745 89.3584 121.525 89.6405 119.94 89.6405H119.193V93.1774H116.814V82.7647C117.333 82.6632 117.882 82.592 118.461 82.5511C119.04 82.5107 119.548 82.4902 119.985 82.4902" fill="#171A1E"/>
<path fill-rule="evenodd" clip-rule="evenodd" d="M57.9328 96.5422H58.6796V99.8598H57.9328V98.4523H56.6786V99.8598H55.9318V96.5422H56.6786V97.8107H57.9328V96.5422Z" fill="#171A1E"/>
<path fill-rule="evenodd" clip-rule="evenodd" d="M61.7432 99.8598V96.5422H63.9835V97.1694H62.4899V97.8205H63.816V98.4333H62.4899V99.2326H64.0937V99.8598H61.7432Z" fill="#171A1E"/>
<path fill-rule="evenodd" clip-rule="evenodd" d="M68.2702 97.2939C68.2536 97.3421 68.2292 97.4076 68.1971 97.4905C68.1649 97.5735 68.1284 97.6692 68.0874 97.778C68.0464 97.8867 68.0006 98.0063 67.9499 98.137C67.8992 98.2678 67.8479 98.4047 67.7956 98.5481H68.7442C68.6934 98.4043 68.6444 98.2667 68.5968 98.1358C68.5492 98.0047 68.5039 97.8848 68.4611 97.7761C68.4182 97.6675 68.3807 97.5716 68.3484 97.4888C68.316 97.406 68.29 97.3409 68.2702 97.2939V97.2939ZM69.1674 99.8597C69.1305 99.7444 69.0908 99.6262 69.0483 99.5047C69.0058 99.3832 68.9635 99.2621 68.9213 99.1416H67.6257C67.5838 99.2627 67.5417 99.384 67.4998 99.5056C67.4576 99.6272 67.4185 99.7453 67.3822 99.8597H66.6067C66.7315 99.5024 66.8499 99.172 66.962 98.8688C67.074 98.5657 67.1836 98.28 67.2909 98.012C67.3981 97.7438 67.5038 97.4894 67.6077 97.2483C67.7118 97.0075 67.82 96.7721 67.9319 96.5424H68.6398C68.7487 96.7721 68.8562 97.0075 68.962 97.2483C69.0679 97.4894 69.1744 97.7438 69.2819 98.012C69.3893 98.28 69.4991 98.5657 69.6114 98.8688C69.7235 99.172 69.8422 99.5024 69.9673 99.8597H69.1674Z" fill="#171A1E"/>
<path fill-rule="evenodd" clip-rule="evenodd" d="M74.9073 99.2181V99.8598H72.6909V96.5422H73.4376V99.2181H74.9073Z" fill="#171A1E"/>
<path fill-rule="evenodd" clip-rule="evenodd" d="M80.1442 96.5422V97.1789H79.1436V99.8598H78.3969V97.1789H77.3965V96.5422H80.1442Z" fill="#171A1E"/>
<path fill-rule="evenodd" clip-rule="evenodd" d="M84.9217 96.5422H85.6685V99.8598H84.9217V98.4523H83.6675V99.8598H82.9207V96.5422H83.6675V97.8107H84.9217V96.5422Z" fill="#171A1E"/>
<path fill-rule="evenodd" clip-rule="evenodd" d="M90.2447 99.9267C89.7055 99.9267 89.2945 99.7768 89.012 99.4768C88.7297 99.1768 88.5884 98.7507 88.5884 98.1985C88.5884 97.9241 88.6314 97.6791 88.7177 97.4638C88.8039 97.2483 88.9218 97.0664 89.0719 96.9181C89.222 96.7696 89.4005 96.6572 89.6081 96.5806C89.8155 96.5039 90.0405 96.4657 90.283 96.4657C90.4234 96.4657 90.5512 96.4761 90.666 96.4968C90.7809 96.5175 90.8814 96.5416 90.9676 96.5686C91.0538 96.5958 91.1256 96.6237 91.183 96.6523C91.2405 96.6812 91.2818 96.7035 91.3075 96.7193L91.092 97.3225C90.9898 97.2683 90.871 97.222 90.7354 97.1838C90.5998 97.1454 90.4458 97.1263 90.2735 97.1263C90.1586 97.1263 90.046 97.1454 89.936 97.1838C89.8259 97.222 89.7285 97.2835 89.644 97.368C89.5593 97.4527 89.4914 97.5619 89.4405 97.6959C89.3894 97.8301 89.3639 97.9927 89.3639 98.1842C89.3639 98.3374 89.3806 98.4803 89.4142 98.6127C89.4478 98.7451 89.502 98.8593 89.577 98.955C89.6519 99.0507 89.75 99.1266 89.8713 99.1823C89.9926 99.2383 90.1395 99.2661 90.3117 99.2661C90.4202 99.2661 90.5176 99.2599 90.6037 99.247C90.69 99.2343 90.7665 99.219 90.8336 99.2015C90.9006 99.1839 90.9596 99.1639 91.0107 99.1416C91.0617 99.1194 91.1081 99.0985 91.1495 99.0794L91.3554 99.6778C91.25 99.7416 91.1017 99.7991 90.9101 99.8502C90.7187 99.9012 90.4968 99.9267 90.2447 99.9267" fill="#171A1E"/>
<path fill-rule="evenodd" clip-rule="evenodd" d="M95.4603 97.2939C95.4436 97.3421 95.4192 97.4076 95.3871 97.4905C95.355 97.5735 95.3185 97.6692 95.2775 97.778C95.2365 97.8867 95.1906 98.0063 95.14 98.137C95.0893 98.2678 95.0379 98.4047 94.9857 98.5481H95.9343C95.8835 98.4043 95.8344 98.2667 95.7868 98.1358C95.7392 98.0047 95.694 97.8848 95.6512 97.7761C95.6083 97.6675 95.5708 97.5716 95.5385 97.4888C95.5061 97.406 95.4801 97.3409 95.4603 97.2939V97.2939ZM96.3575 99.8597C96.3205 99.7444 96.2808 99.6262 96.2384 99.5047C96.1959 99.3832 96.1535 99.2621 96.1114 99.1416H94.8157C94.7738 99.2627 94.7318 99.384 94.6899 99.5056C94.6477 99.6272 94.6086 99.7453 94.5722 99.8597H93.7968C93.9216 99.5024 94.04 99.172 94.1521 98.8688C94.2641 98.5657 94.3737 98.28 94.481 98.012C94.5881 97.7438 94.6938 97.4894 94.7978 97.2483C94.9019 97.0075 95.01 96.7721 95.122 96.5424H95.8299C95.9388 96.7721 96.0462 97.0075 96.1521 97.2483C96.2579 97.4894 96.3645 97.7438 96.4719 98.012C96.5794 98.28 96.6892 98.5657 96.8014 98.8688C96.9135 99.172 97.0322 99.5024 97.1573 99.8597H96.3575Z" fill="#171A1E"/>
<path fill-rule="evenodd" clip-rule="evenodd" d="M100.896 97.1405C100.842 97.1405 100.793 97.1423 100.75 97.1454C100.707 97.1487 100.666 97.1518 100.628 97.155V98.055H100.838C101.119 98.055 101.32 98.0198 101.442 97.9496C101.563 97.8795 101.623 97.7598 101.623 97.5906C101.623 97.4278 101.562 97.3122 101.439 97.2435C101.316 97.1749 101.135 97.1405 100.896 97.1405M100.853 96.5039C101.351 96.5039 101.732 96.5925 101.997 96.7696C102.262 96.9467 102.394 97.222 102.394 97.5953C102.394 97.8284 102.341 98.0175 102.234 98.1626C102.127 98.3078 101.973 98.4219 101.772 98.5049C101.839 98.588 101.909 98.6827 101.982 98.7897C102.056 98.8966 102.128 99.0084 102.2 99.1249C102.272 99.2414 102.342 99.3627 102.409 99.4887C102.476 99.6147 102.538 99.7385 102.595 99.8597H101.76C101.7 99.7512 101.638 99.6411 101.575 99.5293C101.513 99.4178 101.449 99.309 101.383 99.2039C101.318 99.0985 101.253 98.9988 101.189 98.9046C101.124 98.8105 101.06 98.7251 100.996 98.6486H100.628V99.8597H99.881V96.59C100.044 96.5582 100.212 96.5357 100.386 96.5232C100.56 96.5105 100.716 96.5039 100.853 96.5039" fill="#171A1E"/>
<path fill-rule="evenodd" clip-rule="evenodd" d="M105.371 99.8598V96.5422H107.612V97.1694H106.118V97.8205H107.444V98.4333H106.118V99.2326H107.722V99.8598H105.371Z" fill="#171A1E"/>
<mask id="mask1_20_63" style="mask-type:alpha" maskUnits="userSpaceOnUse" x="26" y="0" width="112" height="74">
<path fill-rule="evenodd" clip-rule="evenodd" d="M26 0.145996H137.438V73.5415H26V0.145996Z" fill="white"/>
</mask>
<g mask="url(#mask1_20_63)">
<path fill-rule="evenodd" clip-rule="evenodd" d="M122.747 58.842C110.616 70.9734 90.8782 70.9734 78.7469 58.842L47.9722 28.0684C48.6904 26.8661 49.5618 25.7446 50.5767 24.7296C51.5884 23.7183 52.7049 22.8494 53.9026 22.1329L84.6798 52.91C88.9659 57.1959 94.6719 59.5563 100.748 59.5563C106.823 59.5563 112.529 57.1959 116.815 52.91C121.101 48.624 123.461 42.9175 123.461 36.8419C123.461 30.7665 121.101 25.0604 116.815 20.775C110.63 14.5897 101.349 12.5527 93.1805 15.4217L88.6453 10.8865C88.016 10.2575 87.3672 9.65485 86.7014 9.07791C98.5433 3.08127 113.154 5.24769 122.747 14.842C128.614 20.708 131.845 28.5213 131.845 36.8423C131.845 45.1632 128.614 52.976 122.747 58.842V58.842ZM45.8336 33.84L65.6888 53.6953C60.2665 54.6433 54.5663 52.9448 50.5767 48.9546C47.3474 45.7252 45.5688 41.4235 45.5688 36.8419C45.5688 35.8245 45.662 34.8217 45.8336 33.84V33.84ZM103.767 53.6953C102.78 53.8689 101.771 53.9629 100.748 53.9629C96.1663 53.9629 91.8646 52.1843 88.6354 48.9546L59.6699 19.9897C60.6567 19.8156 61.6656 19.7221 62.6894 19.7221C67.2706 19.7221 71.5723 21.5004 74.8015 24.73L103.767 53.6953ZM117.603 39.8446L97.7482 19.9894C103.17 19.0419 108.87 20.7394 112.86 24.73C116.089 27.9589 117.868 32.2607 117.868 36.8419C117.868 37.86 117.775 38.8629 117.603 39.8446V39.8446ZM40.6891 58.842C28.5582 46.7116 28.5582 26.9729 40.6891 14.8426C46.5551 8.97587 54.3684 5.74521 62.6894 5.74521C71.01 5.74521 78.8237 8.97543 84.6901 14.842L115.464 45.6167C114.746 46.8184 113.875 47.9395 112.86 48.9546C111.849 49.9661 110.732 50.8351 109.535 51.5521L78.7567 20.775C74.4713 16.489 68.7647 14.1289 62.6894 14.1289C56.6136 14.1289 50.9075 16.489 46.6217 20.7746C42.3358 25.0604 39.9754 30.7665 39.9754 36.8419C39.9754 42.9175 42.3358 48.624 46.6217 52.9094C50.9561 57.2445 56.811 59.5436 62.739 59.543C65.2687 59.543 67.8096 59.1169 70.2532 58.2591L74.7918 62.7978C75.4231 63.4289 76.072 64.0308 76.7366 64.6062C64.8953 70.6033 50.2834 68.4373 40.6891 58.842V58.842ZM126.703 10.8865C114.713 -1.10223 96.0823 -3.25858 81.7272 5.44799C76.0501 1.99704 69.5144 0.151781 62.6894 0.151781C52.8744 0.151781 43.6563 3.96419 36.7341 10.887C22.422 25.1989 22.422 48.4855 36.7341 62.7978C43.8252 69.8889 53.2383 73.5416 62.7185 73.5416C69.2687 73.5416 75.8493 71.7911 81.7154 68.2308C87.5412 71.763 94.1439 73.5312 100.748 73.5312C110.148 73.5312 119.548 69.9532 126.703 62.7978C133.626 55.8748 137.438 46.6569 137.438 36.8423C137.438 27.0271 133.626 17.8092 126.703 10.8865V10.8865Z" fill="#171A1E"/>
</g>
</g>
</g>
</svg>
