<svg width="163" height="100" viewBox="0 0 163 100" fill="none" xmlns="http://www.w3.org/2000/svg">
<g opacity="0.7">
<mask id="mask0_20_170" style="mask-type:alpha" maskUnits="userSpaceOnUse" x="0" y="0" width="163" height="100">
<rect width="163" height="100" fill="white"/>
</mask>
<g mask="url(#mask0_20_170)">
<path fill-rule="evenodd" clip-rule="evenodd" d="M53.8407 84.4953C53.6675 84.4953 53.4972 84.5004 53.3292 84.5105C53.1614 84.5207 53.0162 84.531 52.8941 84.5409V87.5946H53.6422C54.4668 87.5946 55.0874 87.4829 55.5049 87.2588C55.9222 87.0349 56.131 86.6175 56.131 86.0069C56.131 85.7117 56.0774 85.4674 55.9706 85.2738C55.8637 85.0807 55.7111 84.9253 55.5125 84.8083C55.3141 84.6914 55.0722 84.6098 54.7874 84.564C54.5023 84.5181 54.1867 84.4953 53.8407 84.4953M53.6881 82.4646C55.2657 82.4646 56.4769 82.7421 57.3219 83.2968C58.1666 83.8516 58.5891 84.7601 58.5891 86.0219C58.5891 87.2944 58.1615 88.213 57.3065 88.7779C56.4516 89.3428 55.2301 89.6253 53.6422 89.6253H52.8941V93.1674H50.5122V82.7395C51.0314 82.6378 51.5811 82.5665 52.1612 82.5256C52.7415 82.4851 53.2502 82.4646 53.6881 82.4646" fill="#1E2023"/>
<path fill-rule="evenodd" clip-rule="evenodd" d="M63.5436 84.9839C63.4904 85.1375 63.4126 85.3466 63.3103 85.6109C63.2079 85.8755 63.0916 86.1811 62.9607 86.5279C62.83 86.8745 62.6838 87.2561 62.5223 87.6729C62.3609 88.0896 62.1967 88.5266 62.0299 88.984H65.0556C64.8936 88.5252 64.7369 88.0868 64.5851 87.6688C64.4334 87.2508 64.2891 86.8685 64.1527 86.5216C64.0158 86.1749 63.8962 85.8697 63.7932 85.6052C63.69 85.3412 63.6068 85.134 63.5436 84.9839V84.9839ZM66.4052 93.1675C66.2873 92.7998 66.1609 92.4222 66.0253 92.0347C65.8898 91.6473 65.7549 91.2614 65.6205 90.8773H61.4881C61.3546 91.2633 61.2205 91.6499 61.0863 92.0378C60.9521 92.4257 60.8271 92.8024 60.7113 93.1675H58.2379C58.6362 92.0276 59.0138 90.9742 59.3711 90.007C59.7286 89.04 60.078 88.129 60.4201 87.2739C60.7622 86.419 61.099 85.6074 61.4309 84.8388C61.7628 84.0704 62.1075 83.3195 62.4648 82.5868H64.7226C65.0701 83.3195 65.4128 84.0704 65.7503 84.8388C66.0876 85.6074 66.4278 86.419 66.7704 87.2739C67.1129 88.129 67.4632 89.04 67.821 90.007C68.1789 90.9742 68.5572 92.0276 68.956 93.1675H66.4052Z" fill="#1E2023"/>
<path fill-rule="evenodd" clip-rule="evenodd" d="M76.9108 82.5868V84.6175H73.7198V93.1675H71.338V84.6175H68.1471V82.5868H76.9108Z" fill="#1E2023"/>
<mask id="mask1_20_170" style="mask-type:alpha" maskUnits="userSpaceOnUse" x="34" y="0" width="94" height="100">
<path fill-rule="evenodd" clip-rule="evenodd" d="M34 99.9266H127.501V0H34V99.9266Z" fill="white"/>
</mask>
<g mask="url(#mask1_20_170)">
<path fill-rule="evenodd" clip-rule="evenodd" d="M78.4376 93.1675H80.8194V82.5868H78.4376V93.1675Z" fill="#1E2023"/>
<path fill-rule="evenodd" clip-rule="evenodd" d="M83.2621 93.1675V82.5868H90.4076V84.5869H85.644V86.6634H89.8732V88.6176H85.644V91.1673H90.7588V93.1675H83.2621Z" fill="#1E2023"/>
<path fill-rule="evenodd" clip-rule="evenodd" d="M99.614 93.1675C98.932 91.9564 98.1941 90.7603 97.4001 89.5795C96.6062 88.3989 95.7612 87.2843 94.8656 86.2359V93.1675H92.5143V82.5868H94.4535C94.7893 82.9228 95.1608 83.3349 95.5679 83.8235C95.975 84.3121 96.3899 84.8339 96.8122 85.3884C97.2346 85.9434 97.6545 86.5184 98.0719 87.1138C98.4891 87.7092 98.8811 88.2817 99.2475 88.8314V82.5868H101.614V93.1675H99.614Z" fill="#1E2023"/>
<path fill-rule="evenodd" clip-rule="evenodd" d="M111.905 82.5868V84.6175H108.714V93.1675H106.332V84.6175H103.141V82.5868H111.905Z" fill="#1E2023"/>
<path fill-rule="evenodd" clip-rule="evenodd" d="M63.48 99.9267C62.94 99.9267 62.5284 99.7765 62.2457 99.4761C61.9628 99.1756 61.8213 98.7489 61.8213 98.196C61.8213 97.9211 61.8644 97.6758 61.9508 97.4601C62.037 97.2443 62.1552 97.0622 62.3056 96.9136C62.4558 96.765 62.6347 96.6524 62.8425 96.5756C63.0502 96.4989 63.2755 96.4606 63.5185 96.4606C63.6591 96.4606 63.7869 96.471 63.902 96.4917C64.017 96.5125 64.1176 96.5366 64.204 96.5636C64.2903 96.5908 64.3622 96.6188 64.4198 96.6474C64.4773 96.6764 64.5186 96.6987 64.5444 96.7145L64.3287 97.3186C64.2262 97.2644 64.1072 97.218 63.9714 97.1797C63.8356 97.1413 63.6815 97.1221 63.5088 97.1221C63.3938 97.1221 63.2812 97.1413 63.171 97.1797C63.0606 97.218 62.9631 97.2796 62.8784 97.3642C62.7938 97.449 62.7258 97.5584 62.6746 97.6926C62.6236 97.8269 62.598 97.9898 62.598 98.1816C62.598 98.335 62.6147 98.4781 62.6483 98.6107C62.6819 98.7433 62.7362 98.8576 62.8113 98.9536C62.8863 99.0493 62.9846 99.1253 63.1061 99.1812C63.2275 99.2372 63.3746 99.2651 63.5471 99.2651C63.6558 99.2651 63.7533 99.2588 63.8397 99.246C63.9259 99.2332 64.0025 99.2179 64.0698 99.2003C64.1369 99.1828 64.196 99.1628 64.2471 99.1404C64.2983 99.1182 64.3447 99.0973 64.3862 99.0781L64.5923 99.6774C64.4869 99.7413 64.3382 99.7989 64.1466 99.85C63.9547 99.9011 63.7325 99.9267 63.48 99.9267" fill="#1E2023"/>
<path fill-rule="evenodd" clip-rule="evenodd" d="M68.0008 98.196C68.0008 98.359 68.0208 98.506 68.0607 98.637C68.1008 98.7682 68.1582 98.8809 68.2334 98.975C68.3084 99.0693 68.4002 99.1422 68.5091 99.1932C68.6176 99.2443 68.7421 99.2699 68.8829 99.2699C69.0203 99.2699 69.1442 99.2443 69.2544 99.1932C69.3646 99.1422 69.4573 99.0693 69.5326 98.975C69.6075 98.8809 69.6651 98.7682 69.7051 98.637C69.7451 98.506 69.7649 98.359 69.7649 98.196C69.7649 98.0331 69.7451 97.8851 69.7051 97.7525C69.6651 97.6201 69.6075 97.5065 69.5326 97.4122C69.4573 97.3179 69.3646 97.2452 69.2544 97.1939C69.1442 97.1429 69.0203 97.1173 68.8829 97.1173C68.7421 97.1173 68.6176 97.1438 68.5091 97.1964C68.4002 97.249 68.3084 97.3227 68.2334 97.417C68.1582 97.5112 68.1008 97.6248 68.0607 97.7574C68.0208 97.89 68.0008 98.0362 68.0008 98.196M70.5369 98.196C70.5369 98.4805 70.4945 98.7305 70.41 98.9462C70.325 99.1619 70.2091 99.3426 70.0623 99.4881C69.9152 99.6335 69.7402 99.7429 69.5373 99.8164C69.3342 99.8898 69.1163 99.9267 68.8829 99.9267C68.6559 99.9267 68.442 99.8898 68.2405 99.8164C68.0392 99.7429 67.8635 99.6335 67.7132 99.4881C67.5629 99.3426 67.4446 99.1619 67.3584 98.9462C67.2721 98.7305 67.229 98.4805 67.229 98.196C67.229 97.9116 67.2736 97.6614 67.3632 97.4457C67.4527 97.23 67.5733 97.0486 67.7252 96.9015C67.8769 96.7547 68.0527 96.6443 68.2525 96.5708C68.4522 96.4973 68.6623 96.4606 68.8829 96.4606C69.1098 96.4606 69.324 96.4973 69.5253 96.5708C69.7268 96.6443 69.9024 96.7547 70.0527 96.9015C70.203 97.0486 70.3211 97.23 70.4075 97.4457C70.4937 97.6614 70.5369 97.9116 70.5369 98.196" fill="#1E2023"/>
<path fill-rule="evenodd" clip-rule="evenodd" d="M74.3432 96.5372C74.4009 96.6428 74.4674 96.7729 74.5427 96.928C74.618 97.083 74.6965 97.2508 74.7782 97.4312C74.86 97.6119 74.9408 97.7964 75.0211 97.985C75.1012 98.1736 75.1763 98.351 75.247 98.5172C75.3174 98.351 75.3927 98.1736 75.4728 97.985C75.5528 97.7964 75.6338 97.6119 75.7155 97.4312C75.7973 97.2508 75.8758 97.083 75.9511 96.928C76.0265 96.7729 76.093 96.6428 76.1506 96.5372H76.8315C76.8632 96.7578 76.8929 97.0046 76.9201 97.2779C76.9473 97.5513 76.9712 97.8358 76.992 98.1312C77.0127 98.427 77.0319 98.7233 77.0496 99.0206C77.067 99.3179 77.0822 99.5976 77.0951 99.8596H76.3664C76.3566 99.5368 76.344 99.1852 76.328 98.8049C76.312 98.4245 76.288 98.041 76.256 97.6543C76.1983 97.7885 76.1342 97.9371 76.0638 98.1001C75.9932 98.2631 75.9234 98.4261 75.8546 98.5891C75.7856 98.752 75.719 98.908 75.655 99.0565C75.5908 99.2052 75.5363 99.3321 75.4914 99.4377H74.9687C74.924 99.3321 74.8695 99.2052 74.8053 99.0565C74.7413 98.908 74.6747 98.752 74.6057 98.5891C74.5367 98.4261 74.4671 98.2631 74.3965 98.1001C74.3261 97.9371 74.2619 97.7885 74.2043 97.6543C74.1723 98.041 74.1483 98.4245 74.1323 98.8049C74.1163 99.1852 74.1035 99.5368 74.0939 99.8596H73.3652C73.378 99.5976 73.3932 99.3179 73.4107 99.0206C73.4282 98.7233 73.4475 98.427 73.4683 98.1312C73.4891 97.8358 73.513 97.5513 73.5402 97.2779C73.5673 97.0046 73.597 96.7578 73.6288 96.5372H74.3432Z" fill="#1E2023"/>
<path fill-rule="evenodd" clip-rule="evenodd" d="M81.1075 97.1364C81.0531 97.1364 80.9996 97.1381 80.9469 97.1412C80.8941 97.1445 80.8486 97.1476 80.8103 97.1508V98.1096H81.0451C81.304 98.1096 81.499 98.0745 81.63 98.0042C81.761 97.9339 81.8265 97.8029 81.8265 97.6111C81.8265 97.5184 81.8099 97.4416 81.7762 97.3809C81.7428 97.3203 81.6948 97.2714 81.6325 97.2347C81.5701 97.198 81.4942 97.1723 81.4048 97.1578C81.3153 97.1437 81.216 97.1364 81.1075 97.1364M81.0596 96.4988C81.5549 96.4988 81.9352 96.5859 82.2007 96.76C82.4657 96.9343 82.5985 97.2195 82.5985 97.6157C82.5985 98.0154 82.4641 98.3038 82.1957 98.4811C81.9273 98.6586 81.5436 98.7473 81.0451 98.7473H80.8103V99.8595H80.0625V96.585C80.2254 96.5532 80.3979 96.5307 80.5802 96.5181C80.7624 96.5054 80.922 96.4988 81.0596 96.4988" fill="#1E2023"/>
<path fill-rule="evenodd" clip-rule="evenodd" d="M86.7812 97.2899C86.7645 97.3381 86.7401 97.4038 86.7079 97.4868C86.6758 97.5698 86.6392 97.6657 86.5981 97.7747C86.5572 97.8836 86.5111 98.0033 86.4606 98.1342C86.4098 98.2652 86.3582 98.4023 86.3059 98.5459H87.2559C87.205 98.4019 87.1559 98.2641 87.1082 98.133C87.0606 98.0017 87.0154 97.8817 86.9725 97.7728C86.9296 97.664 86.892 97.5679 86.8595 97.485C86.8271 97.4021 86.8011 97.3369 86.7812 97.2899V97.2899ZM87.6797 99.8595C87.6427 99.744 87.603 99.6255 87.5604 99.5039C87.5179 99.3823 87.4755 99.2609 87.4334 99.1403H86.1358C86.0939 99.2615 86.0518 99.383 86.0097 99.5048C85.9676 99.6266 85.9282 99.7448 85.8918 99.8595H85.1152C85.2402 99.5016 85.3588 99.1707 85.4711 98.8671C85.5834 98.5635 85.693 98.2774 85.8005 98.009C85.9078 97.7404 86.0136 97.4856 86.1179 97.2442C86.222 97.003 86.3303 96.7673 86.4426 96.5372H87.1513C87.2604 96.7673 87.3682 97.003 87.474 97.2442C87.58 97.4856 87.6867 97.7404 87.7945 98.009C87.9019 98.2774 88.0119 98.5635 88.1243 98.8671C88.2366 99.1707 88.3554 99.5016 88.4807 99.8595H87.6797Z" fill="#1E2023"/>
<path fill-rule="evenodd" clip-rule="evenodd" d="M93.4376 99.8595C93.2235 99.4791 92.9917 99.1036 92.7425 98.7329C92.4932 98.3621 92.228 98.0121 91.9467 97.6829V99.8595H91.2084V96.5371H91.8173C91.9227 96.6427 92.0394 96.7721 92.1673 96.9256C92.2951 97.0788 92.4252 97.2428 92.5578 97.4169C92.6906 97.5911 92.8223 97.7718 92.9534 97.9586C93.0844 98.1456 93.2075 98.3254 93.3226 98.4979V96.5371H94.0657V99.8595H93.4376Z" fill="#1E2023"/>
<path fill-rule="evenodd" clip-rule="evenodd" d="M98.3506 97.8998C98.4849 97.6735 98.613 97.4472 98.7346 97.2209C98.8561 96.9947 98.9683 96.7668 99.0706 96.5372H99.8952C99.713 96.8951 99.5244 97.2419 99.3295 97.5776C99.1345 97.9131 98.9284 98.2502 98.7111 98.5891V99.8595H97.9633V98.5986C97.7458 98.2599 97.5389 97.9211 97.3424 97.5823C97.1458 97.2437 96.9564 96.8951 96.7743 96.5372H97.642C97.7441 96.7668 97.8541 96.9947 97.9724 97.2209C98.0905 97.4472 98.2165 97.6735 98.3506 97.8998" fill="#1E2023"/>
<path fill-rule="evenodd" clip-rule="evenodd" d="M64.1997 0V0C66.4851 0.000584795 68.3378 1.85234 68.3378 4.13816V30.1958C68.3378 32.4766 66.4927 34.3272 64.212 34.3333L46.4258 34.3854C45.3082 34.3854 44.269 34.8155 43.4878 35.5974C42.7057 36.3788 42.2758 37.418 42.2758 38.5234C42.2756 39.6285 42.7057 40.6678 43.4875 41.4491C44.2687 42.2301 45.3082 42.6608 46.4137 42.6608L64.1875 42.6086H64.2C65.2949 42.6086 66.346 43.0428 67.1213 43.8161C67.8995 44.5924 68.3378 45.6468 68.3378 46.7461V61.119C68.3378 62.2243 68.7681 63.2633 69.55 64.0458C70.3308 64.8265 71.37 65.2567 72.4757 65.2567C73.581 65.2567 74.6197 64.8265 75.401 64.0446C76.1824 63.2633 76.6125 62.2247 76.6125 61.1194V12.4129C76.6125 9.0981 77.9036 5.98085 80.2481 3.63611C82.5927 1.29137 85.7104 0 89.0258 0.000146199C92.3418 0.000584795 95.4589 1.29137 97.803 3.63553C100.147 5.98114 101.439 9.09781 101.439 12.4129L101.439 26.1105L115.076 26.0706C118.404 26.0708 121.521 27.3616 123.865 29.7058C126.21 32.0503 127.501 35.1674 127.501 38.4833C127.501 41.799 126.21 44.9161 123.865 47.2607C121.521 49.6053 118.403 50.8965 115.088 50.8965H115.088L101.439 50.936V69.3946C101.439 71.6797 99.5859 73.532 97.3011 73.532C95.0158 73.532 93.1628 71.6797 93.1633 69.3946V46.8105C93.1633 44.5297 95.0087 42.6795 97.2894 42.6727L115.076 42.6213C116.193 42.6211 117.232 42.1906 118.013 41.4089C118.795 40.6273 119.226 39.5884 119.226 38.4835C119.226 37.3776 118.795 36.339 118.014 35.5576C117.233 34.7763 116.193 34.3458 115.088 34.3458L97.3131 34.398H97.3011C96.2058 34.398 95.1552 33.9639 94.3794 33.1903C93.601 32.4142 93.1633 31.3596 93.1633 30.2604L93.164 12.4129C93.1633 11.3079 92.7327 10.2686 91.9507 9.48684C91.1704 8.70629 90.1313 8.27602 89.0256 8.27602C87.9204 8.27602 86.8815 8.70629 86.1001 9.48801C85.3182 10.2692 84.8887 11.3079 84.888 12.4129L84.8887 61.1194C84.888 64.4347 83.5972 67.5518 81.2525 69.8965C78.9086 72.2409 75.7911 73.532 72.4757 73.532C69.1601 73.532 66.0424 72.2415 63.6984 69.8969C61.3532 67.5513 60.0623 64.4341 60.0623 61.1194V50.8959L46.4256 50.936C43.0979 50.936 39.9804 49.645 37.6362 47.3006C35.2916 44.9563 34 41.8389 34 38.5232C34 35.2075 35.2916 32.0904 37.6353 29.7458C39.9804 27.4013 43.0979 26.1098 46.4127 26.1101C46.4131 26.1098 46.4137 26.1101 46.4137 26.1101L60.0623 26.0703L60.0618 4.13816C60.0623 1.85278 61.915 0 64.1997 0" fill="#1E2023"/>
</g>
</g>
</g>
</svg>
