<svg width="163" height="100" viewBox="0 0 163 100" fill="none" xmlns="http://www.w3.org/2000/svg">
<mask id="mask0_20_92" style="mask-type:alpha" maskUnits="userSpaceOnUse" x="0" y="0" width="163" height="100">
<rect width="163" height="100" fill="white"/>
</mask>
<g mask="url(#mask0_20_92)">
<path fill-rule="evenodd" clip-rule="evenodd" d="M39.731 92.5714C39.2599 91.5636 38.7955 90.5175 38.3377 89.4335C37.8794 88.3496 37.4444 87.2769 37.0324 86.2159C36.62 85.1549 36.2413 84.1393 35.8956 83.1692C35.5499 82.1988 35.2512 81.3331 35 80.5714H37.9359C38.1574 81.2662 38.4034 82.0143 38.6744 82.8152C38.9454 83.6163 39.2218 84.4149 39.5028 85.2101C39.7841 86.0058 40.0534 86.7681 40.311 87.497C40.5686 88.2259 40.8153 88.8553 41.0512 89.3852C41.2733 88.8588 41.5163 88.231 41.7798 87.5023C42.0433 86.7735 42.316 86.0115 42.5971 85.2157C42.8781 84.4202 43.154 83.6217 43.425 82.8206C43.6958 82.0198 43.9426 81.27 44.1651 80.5714H47C46.7349 81.3368 46.43 82.2038 46.0852 83.1718C45.7403 84.1401 45.3632 85.1552 44.9534 86.2172C44.5438 87.2794 44.1116 88.3532 43.6568 89.4383C43.2017 90.5235 42.7395 91.5679 42.2707 92.5714H39.731Z" fill="#262626"/>
<path fill-rule="evenodd" clip-rule="evenodd" d="M48.1428 92.5714V80.5714H56.3127V82.8399H50.8662V85.1949H55.7018V87.4112H50.8662V90.303H56.7143V92.5714H48.1428Z" fill="#262626"/>
<path fill-rule="evenodd" clip-rule="evenodd" d="M62.6322 82.8482C62.4378 82.8482 62.2637 82.854 62.1095 82.8653C61.9555 82.8768 61.8098 82.8882 61.6726 82.8994V86.1178H62.4267C63.4315 86.1178 64.1511 85.9924 64.5853 85.7411C65.0192 85.4903 65.2364 85.0623 65.2364 84.4573C65.2364 83.8754 65.0163 83.4618 64.5768 83.2162C64.1369 82.9709 63.4888 82.8482 62.6322 82.8482M62.478 80.5714C64.2598 80.5714 65.6246 80.8881 66.5729 81.5215C67.5206 82.1549 67.9947 83.139 67.9947 84.4745C67.9947 85.3077 67.8034 85.9838 67.4209 86.503C67.038 87.0224 66.4871 87.4303 65.7675 87.727C66.0074 88.0238 66.2585 88.3633 66.5213 88.7455C66.784 89.1281 67.0439 89.5273 67.3009 89.9438C67.5579 90.3605 67.8064 90.7942 68.0461 91.2448C68.2859 91.6958 68.5087 92.1378 68.7143 92.5714H65.7265C65.5086 92.1836 65.2878 91.79 65.0642 91.3902C64.8407 90.9911 64.6116 90.6029 64.3765 90.2262C64.1415 89.8497 63.9091 89.493 63.68 89.1563C63.4505 88.82 63.2212 88.5143 62.992 88.2405H61.6726V92.5714H59V80.8796C59.5826 80.7657 60.1848 80.6857 60.8074 80.6398C61.4298 80.5944 61.9867 80.5714 62.478 80.5714" fill="#262626"/>
<mask id="mask1_20_92" style="mask-type:alpha" maskUnits="userSpaceOnUse" x="35" y="0" width="94" height="100">
<path fill-rule="evenodd" clip-rule="evenodd" d="M35 100H128.143V0H35V100Z" fill="white"/>
</mask>
<g mask="url(#mask1_20_92)">
<path fill-rule="evenodd" clip-rule="evenodd" d="M70.4286 92.5714H72.7143V80.5714H70.4286V92.5714Z" fill="#262626"/>
<path fill-rule="evenodd" clip-rule="evenodd" d="M83.5714 90.2511V92.5714H75.5714V80.5714H78.2669V90.2511H83.5714Z" fill="#262626"/>
<path fill-rule="evenodd" clip-rule="evenodd" d="M88.201 85.4933C88.6932 84.6759 89.1616 83.8586 89.6072 83.0412C90.0523 82.2237 90.4625 81.4005 90.8377 80.5714H93.8572C93.19 81.8644 92.4994 83.1169 91.7856 84.3292C91.0717 85.5412 90.3166 86.7593 89.521 87.9828V92.5714H86.7824V88.0174C85.9863 86.7939 85.2287 85.5701 84.509 84.3464C83.7892 83.1229 83.0958 81.8644 82.4286 80.5714H85.606C85.9801 81.4005 86.3834 82.2237 86.8159 83.0412C87.2482 83.8586 87.71 84.6759 88.201 85.4933" fill="#262626"/>
<path fill-rule="evenodd" clip-rule="evenodd" d="M103 90.2511V92.5714H95V80.5714H97.6955V90.2511H103Z" fill="#262626"/>
<path fill-rule="evenodd" clip-rule="evenodd" d="M104.714 92.5714H107V80.5714H104.714V92.5714Z" fill="#262626"/>
<path fill-rule="evenodd" clip-rule="evenodd" d="M109.857 92.5714V80.5714H117.857V82.8399H112.547V85.3506H117.271V87.619H112.547V92.5714H109.857Z" fill="#262626"/>
<path fill-rule="evenodd" clip-rule="evenodd" d="M119.571 92.5714V80.5714H127.741V82.8399H122.295V85.1949H127.131V87.4112H122.295V90.303H128.143V92.5714H119.571Z" fill="#262626"/>
<path fill-rule="evenodd" clip-rule="evenodd" d="M61.4554 99.2642C61.5799 99.2642 61.6826 99.2541 61.7637 99.2337C61.8448 99.2136 61.9098 99.1859 61.9588 99.1508C62.008 99.1157 62.0418 99.0742 62.0608 99.0263C62.0796 98.9786 62.0891 98.9249 62.0891 98.8659C62.0891 98.7405 62.0287 98.6362 61.9081 98.5532C61.7872 98.4704 61.5799 98.381 61.2857 98.285C61.1574 98.2408 61.029 98.1901 60.901 98.1328C60.7726 98.0758 60.6575 98.0037 60.5557 97.9172C60.4539 97.8304 60.3709 97.7253 60.3067 97.6017C60.2427 97.4782 60.2106 97.3278 60.2106 97.1508C60.2106 96.9738 60.2446 96.8142 60.3124 96.6723C60.3804 96.5303 60.4765 96.4095 60.6011 96.3098C60.7255 96.2102 60.8763 96.1336 61.0537 96.0803C61.2309 96.0268 61.4309 96 61.6534 96C61.9174 96 62.1455 96.0277 62.3381 96.083C62.5303 96.1383 62.6889 96.1993 62.8133 96.2657L62.5588 96.9462C62.4492 96.8908 62.3276 96.8421 62.1937 96.7996C62.0598 96.7572 61.8986 96.736 61.71 96.736C61.4987 96.736 61.347 96.7645 61.2545 96.8215C61.162 96.8789 61.116 96.9664 61.116 97.0844C61.116 97.1545 61.1329 97.2136 61.1669 97.2615C61.2007 97.3094 61.2488 97.3528 61.3111 97.3914C61.3732 97.4302 61.4448 97.4653 61.5261 97.4965C61.6072 97.5279 61.6967 97.5601 61.7949 97.5934C61.9985 97.6671 62.1757 97.74 62.3267 97.812C62.4775 97.8838 62.6029 97.9678 62.7028 98.0638C62.8029 98.1596 62.8775 98.2721 62.9265 98.4012C62.9755 98.5303 63 98.687 63 98.8714C63 99.2293 62.8718 99.5067 62.6152 99.7041C62.3586 99.9013 61.9721 100 61.4554 100C61.2818 100 61.1253 99.9899 60.9857 99.9696C60.8461 99.9494 60.7226 99.9244 60.6151 99.8949C60.5076 99.8654 60.4153 99.8341 60.338 99.8009C60.2607 99.7677 60.1954 99.7365 60.1428 99.7068L60.3916 99.0209C60.5086 99.0837 60.6529 99.1399 60.8245 99.1896C60.996 99.2394 61.2064 99.2642 61.4554 99.2642" fill="#262626"/>
<path fill-rule="evenodd" clip-rule="evenodd" d="M68.1389 100C67.5821 100 67.1577 99.8267 66.866 99.48C66.5745 99.1333 66.4286 98.6408 66.4286 98.0027C66.4286 97.6855 66.4731 97.4024 66.5621 97.1535C66.6511 96.9045 66.7729 96.6943 66.9278 96.5229C67.0828 96.3513 67.2672 96.2214 67.4815 96.1328C67.6957 96.0442 67.928 96 68.1784 96C68.3234 96 68.4553 96.012 68.5739 96.0359C68.6926 96.0599 68.7963 96.0877 68.8854 96.1189C68.9743 96.1503 69.0485 96.1826 69.1077 96.2156C69.1671 96.249 69.2098 96.2748 69.2363 96.2931L69.0138 96.9902C68.9083 96.9276 68.7856 96.8741 68.6455 96.8299C68.5055 96.7856 68.3465 96.7635 68.1686 96.7635C68.05 96.7635 67.9337 96.7856 67.8201 96.8299C67.7064 96.8741 67.6059 96.9452 67.5186 97.0429C67.4312 97.1407 67.3611 97.2669 67.3085 97.4218C67.2557 97.5769 67.2293 97.7648 67.2293 97.9862C67.2293 98.1632 67.2467 98.3283 67.2813 98.4814C67.316 98.6344 67.3719 98.7663 67.4494 98.877C67.5267 98.9875 67.628 99.0752 67.7533 99.1397C67.8786 99.2043 68.0302 99.2365 68.2081 99.2365C68.3201 99.2365 68.4206 99.2293 68.5096 99.2144C68.5987 99.1998 68.6776 99.182 68.747 99.1618C68.8162 99.1416 68.8771 99.1184 68.9298 99.0926C68.9824 99.067 69.0304 99.0429 69.0732 99.0208L69.2857 99.7123C69.1769 99.7861 69.0237 99.8525 68.826 99.9116C68.6284 99.9705 68.3992 100 68.1389 100" fill="#262626"/>
<path fill-rule="evenodd" clip-rule="evenodd" d="M72.7142 100H73.2857V96H72.7142V100Z" fill="#262626"/>
<path fill-rule="evenodd" clip-rule="evenodd" d="M76.7142 100V96H78.8928V96.7562H77.4404V97.5412H78.7299V98.2801H77.4404V99.2438H78.9999V100H76.7142Z" fill="#262626"/>
<path fill-rule="evenodd" clip-rule="evenodd" d="M85.1037 100C84.8466 99.542 84.5686 99.09 84.2695 98.6436C83.9703 98.1972 83.6519 97.7758 83.3145 97.3794V100H82.4286V96H83.1593C83.2858 96.1271 83.4258 96.2829 83.5791 96.4677C83.7324 96.6521 83.8888 96.8496 84.0479 97.0593C84.2072 97.2689 84.3652 97.4865 84.5226 97.7114C84.6798 97.9365 84.8275 98.153 84.9656 98.3607V96H85.8572V100H85.1037Z" fill="#262626"/>
<path fill-rule="evenodd" clip-rule="evenodd" d="M90.9961 100C90.4392 100 90.0149 99.8267 89.7232 99.48C89.4317 99.1333 89.2858 98.6408 89.2858 98.0027C89.2858 97.6855 89.3302 97.4024 89.4193 97.1535C89.5083 96.9045 89.6301 96.6943 89.785 96.5229C89.94 96.3513 90.1243 96.2214 90.3387 96.1328C90.5529 96.0442 90.7852 96 91.0356 96C91.1806 96 91.3125 96.012 91.4311 96.0359C91.5497 96.0599 91.6535 96.0877 91.7425 96.1189C91.8315 96.1503 91.9056 96.1826 91.9649 96.2156C92.0243 96.249 92.0669 96.2748 92.0935 96.2931L91.871 96.9902C91.7655 96.9276 91.6428 96.8741 91.5027 96.8299C91.3627 96.7856 91.2036 96.7635 91.0258 96.7635C90.9071 96.7635 90.7909 96.7856 90.6773 96.8299C90.5636 96.8741 90.4631 96.9452 90.3758 97.0429C90.2883 97.1407 90.2182 97.2669 90.1656 97.4218C90.1129 97.5769 90.0865 97.7648 90.0865 97.9862C90.0865 98.1632 90.1038 98.3283 90.1385 98.4814C90.1732 98.6344 90.2291 98.7663 90.3066 98.877C90.3839 98.9875 90.4852 99.0752 90.6105 99.1397C90.7357 99.2043 90.8874 99.2365 91.0653 99.2365C91.1773 99.2365 91.2778 99.2293 91.3667 99.2144C91.4558 99.1998 91.5348 99.182 91.6042 99.1618C91.6734 99.1416 91.7343 99.1184 91.787 99.0926C91.8396 99.067 91.8876 99.0429 91.9304 99.0208L92.1429 99.7123C92.0341 99.7861 91.8809 99.8525 91.6831 99.9116C91.4855 99.9705 91.2564 100 90.9961 100" fill="#262626"/>
<path fill-rule="evenodd" clip-rule="evenodd" d="M95 100V96H97.1785V96.7562H95.7261V97.5412H97.0157V98.2801H95.7261V99.2438H97.2857V100H95Z" fill="#262626"/>
<path fill-rule="evenodd" clip-rule="evenodd" d="M102.027 99.2642C102.151 99.2642 102.254 99.2541 102.335 99.2337C102.416 99.2136 102.481 99.1859 102.53 99.1508C102.579 99.1157 102.613 99.0742 102.632 99.0263C102.651 98.9786 102.661 98.9249 102.661 98.8659C102.661 98.7405 102.6 98.6362 102.48 98.5532C102.359 98.4704 102.151 98.381 101.857 98.285C101.729 98.2408 101.6 98.1901 101.472 98.1328C101.344 98.0758 101.229 98.0037 101.127 97.9172C101.025 97.8304 100.942 97.7253 100.878 97.6017C100.814 97.4782 100.782 97.3278 100.782 97.1508C100.782 96.9738 100.816 96.8142 100.884 96.6723C100.952 96.5303 101.048 96.4095 101.173 96.3098C101.297 96.2102 101.448 96.1336 101.625 96.0803C101.802 96.0268 102.002 96 102.225 96C102.489 96 102.717 96.0277 102.91 96.083C103.102 96.1383 103.26 96.1993 103.385 96.2657L103.13 96.9462C103.021 96.8908 102.899 96.8421 102.765 96.7996C102.631 96.7572 102.47 96.736 102.281 96.736C102.07 96.736 101.918 96.7645 101.826 96.8215C101.733 96.8789 101.687 96.9664 101.687 97.0844C101.687 97.1545 101.704 97.2136 101.738 97.2615C101.772 97.3094 101.82 97.3528 101.883 97.3914C101.945 97.4302 102.016 97.4653 102.098 97.4965C102.179 97.5279 102.268 97.5601 102.366 97.5934C102.57 97.6671 102.747 97.74 102.898 97.812C103.049 97.8838 103.174 97.9678 103.274 98.0638C103.374 98.1596 103.449 98.2721 103.498 98.4012C103.547 98.5303 103.571 98.687 103.571 98.8714C103.571 99.2293 103.443 99.5067 103.187 99.7041C102.93 99.9013 102.544 100 102.027 100C101.853 100 101.697 99.9899 101.557 99.9696C101.418 99.9494 101.294 99.9244 101.186 99.8949C101.079 99.8654 100.987 99.8341 100.909 99.8009C100.832 99.7677 100.767 99.7365 100.714 99.7068L100.963 99.0209C101.08 99.0837 101.224 99.1399 101.396 99.1896C101.567 99.2394 101.778 99.2642 102.027 99.2642" fill="#262626"/>
<path fill-rule="evenodd" clip-rule="evenodd" d="M113.061 23.058C113.056 23.0577 113.051 23.0567 113.046 23.0563C112.968 23.0514 112.89 23.0531 112.813 23.058H106.041C105.001 23.058 104.158 23.8995 104.158 24.9376C104.158 25.9756 105.001 26.8172 106.041 26.8172H110.857C108.901 42.0643 95.7969 53.734 80.1767 53.734C70.0387 53.734 61.0242 48.8406 55.3791 41.2964C60.2133 43.0452 65.3687 43.9596 70.5653 43.9596C80.1696 43.9596 89.2896 40.9627 96.9397 35.2928C97.7746 34.6741 97.9489 33.4967 97.3287 32.6634C96.7085 31.8298 95.529 31.6562 94.6944 32.275C87.6985 37.46 79.3549 40.2004 70.5653 40.2004C64.1194 40.2004 57.7448 38.6693 52.0836 35.7748C50.853 33.1189 49.9903 30.2605 49.5594 27.2643C55.5689 31.8448 62.8754 34.3269 70.5656 34.3269C79.8342 34.3269 88.548 30.7244 95.1019 24.183C95.8375 23.4491 95.8375 22.2589 95.1019 21.525C94.3661 20.7909 93.174 20.7911 92.4388 21.525C86.8535 27.0996 79.5079 30.2778 71.6532 30.547L95.2978 6.94785C99.5609 2.69345 106.497 2.69378 110.759 6.94802C113.666 9.84974 114.694 14.0831 113.441 17.9962C113.225 18.6699 113.407 19.4076 113.911 19.9048L117.106 23.058H113.061ZM55.1955 64.6922C54.0102 65.8753 52.4338 66.5269 50.7576 66.5267C49.7292 66.5267 48.7393 66.2803 47.8534 65.8181L56.572 57.1165C57.3072 56.3824 57.3072 55.1925 56.572 54.4584C55.8365 53.7245 54.6439 53.7245 53.9089 54.4584L45.1903 63.1599C44.7273 62.2761 44.4806 61.2882 44.4806 60.2623C44.4806 58.5894 45.1334 57.0164 46.3191 55.8332L55.2463 46.9228C58.2022 49.9732 61.7134 52.4838 65.6157 54.2917L55.1955 64.6922ZM123.012 23.6011L117.343 18.0059C118.502 13.0763 117.051 7.91176 113.422 4.29006C107.691 -1.43005 98.366 -1.42988 92.6346 4.28973L66.5629 30.3119C59.817 29.4472 53.5805 26.4039 48.6927 21.5252C48.6569 21.4893 48.6209 21.4614 48.5849 21.4343C48.2557 21.1522 47.8286 20.9806 47.3603 20.9806C46.3203 20.9806 45.477 21.8221 45.477 22.8602C45.477 30.848 48.202 38.2119 52.7711 44.0777L43.656 53.1751C41.7594 55.0681 40.7142 57.5852 40.7142 60.2622C40.7142 62.9386 41.7582 65.455 43.6539 67.3476C43.6546 67.3482 43.6552 67.3491 43.656 67.3497C43.6567 67.3504 43.6575 67.3512 43.658 67.352C45.5549 69.2439 48.0759 70.2857 50.7571 70.2857H50.7576C53.4399 70.2857 55.9619 69.2436 57.8586 67.3502L69.4375 55.7932C72.8208 56.8949 76.4299 57.493 80.1767 57.493C97.8618 57.493 112.674 44.1568 114.652 26.8172H121.688C122.452 26.8172 123.14 26.3567 123.43 25.652C123.72 24.9471 123.555 24.1369 123.012 23.6011V23.6011Z" fill="#262626"/>
</g>
</g>
</svg>
