<svg width="44" height="43" viewBox="0 0 44 43" fill="none" xmlns="http://www.w3.org/2000/svg">
<path d="M6.875 6.46094C11.0573 2.27865 16.099 0.1875 22 0.1875C27.901 0.1875 32.9141 2.27865 37.0391 6.46094C41.2214 10.5859 43.3125 15.599 43.3125 21.5C43.3125 27.401 41.2214 32.4427 37.0391 36.625C32.9141 40.75 27.901 42.8125 22 42.8125C16.099 42.8125 11.0573 40.75 6.875 36.625C2.75 32.4427 0.6875 27.401 0.6875 21.5C0.6875 15.599 2.75 10.5859 6.875 6.46094ZM30.7656 15.4844C30.25 14.9115 29.6198 14.625 28.875 14.625C28.1302 14.625 27.4714 14.9115 26.8984 15.4844C26.3828 16 26.125 16.6302 26.125 17.375C26.125 18.1198 26.3828 18.7786 26.8984 19.3516C27.4714 19.8672 28.1302 20.125 28.875 20.125C29.6198 20.125 30.25 19.8672 30.7656 19.3516C31.3385 18.7786 31.625 18.1198 31.625 17.375C31.625 16.6302 31.3385 16 30.7656 15.4844ZM17.0156 15.4844C16.5 14.9115 15.8698 14.625 15.125 14.625C14.3802 14.625 13.7214 14.9115 13.1484 15.4844C12.6328 16 12.375 16.6302 12.375 17.375C12.375 18.1198 12.6328 18.7786 13.1484 19.3516C13.7214 19.8672 14.3802 20.125 15.125 20.125C15.8698 20.125 16.5 19.8672 17.0156 19.3516C17.5885 18.7786 17.875 18.1198 17.875 17.375C17.875 16.6302 17.5885 16 17.0156 15.4844ZM31.8828 29.2344C32.112 29.0052 32.2266 28.7474 32.2266 28.4609C32.2266 28.1172 32.1406 27.8594 31.9688 27.6875C31.7969 27.4583 31.5677 27.2865 31.2812 27.1719C31.0521 27 30.7943 26.9427 30.5078 27C30.2214 27.0573 29.9635 27.2292 29.7344 27.5156C27.7292 29.9219 25.151 31.125 22 31.125C18.849 31.125 16.2708 29.9219 14.2656 27.5156C14.0365 27.2292 13.7786 27.0573 13.4922 27C13.2057 26.9427 12.9193 27 12.6328 27.1719C12.4036 27.2865 12.2031 27.4583 12.0312 27.6875C11.8594 27.8594 11.7734 28.1172 11.7734 28.4609C11.7734 28.7474 11.888 29.0052 12.1172 29.2344C14.6953 32.3281 17.9896 33.875 22 33.875C26.0104 33.875 29.3047 32.3281 31.8828 29.2344Z" fill="#262626"/>
</svg>
