<svg width="44" height="39" viewBox="0 0 44 39" fill="none" xmlns="http://www.w3.org/2000/svg">
<path d="M8.25 38.75V8.5H11V4.375C11 3.22917 11.401 2.25521 12.2031 1.45312C13.0052 0.651042 13.9792 0.25 15.125 0.25H28.875C30.0208 0.25 30.9948 0.651042 31.7969 1.45312C32.599 2.25521 33 3.22917 33 4.375V8.5H35.75V38.75H8.25ZM16.5 5.75V8.5H27.5V5.75H16.5ZM44 12.625V34.625C44 35.7708 43.599 36.7448 42.7969 37.5469C41.9948 38.349 41.0208 38.75 39.875 38.75H38.5V8.5H39.875C41.0208 8.5 41.9948 8.90104 42.7969 9.70312C43.599 10.5052 44 11.4792 44 12.625ZM5.5 38.75H4.125C2.97917 38.75 2.00521 38.349 1.20312 37.5469C0.401042 36.7448 0 35.7708 0 34.625V12.625C0 11.4792 0.401042 10.5052 1.20312 9.70312C2.00521 8.90104 2.97917 8.5 4.125 8.5H5.5V38.75ZM30.25 20.875C30.25 20.474 30.1068 20.1589 29.8203 19.9297C29.5911 19.6432 29.276 19.5 28.875 19.5H24.75V15.375C24.75 14.974 24.6068 14.6589 24.3203 14.4297C24.0911 14.1432 23.776 14 23.375 14H20.625C20.224 14 19.8802 14.1432 19.5938 14.4297C19.3646 14.6589 19.25 14.974 19.25 15.375V19.5H15.125C14.724 19.5 14.3802 19.6432 14.0938 19.9297C13.8646 20.1589 13.75 20.474 13.75 20.875V23.625C13.75 24.026 13.8646 24.3698 14.0938 24.6562C14.3802 24.8854 14.724 25 15.125 25H19.25V29.125C19.25 29.526 19.3646 29.8698 19.5938 30.1562C19.8802 30.3854 20.224 30.5 20.625 30.5H23.375C23.776 30.5 24.0911 30.3854 24.3203 30.1562C24.6068 29.8698 24.75 29.526 24.75 29.125V25H28.875C29.276 25 29.5911 24.8854 29.8203 24.6562C30.1068 24.3698 30.25 24.026 30.25 23.625V20.875Z" fill="#262626"/>
</svg>
