<svg width="34" height="45" viewBox="0 0 34 45" fill="none" xmlns="http://www.w3.org/2000/svg">
<path d="M29.375 6C30.5208 6 31.4948 6.40104 32.2969 7.20312C33.099 8.00521 33.5 8.97917 33.5 10.125V40.375C33.5 41.5208 33.099 42.4948 32.2969 43.2969C31.4948 44.099 30.5208 44.5 29.375 44.5H4.625C3.47917 44.5 2.50521 44.099 1.70312 43.2969C0.901042 42.4948 0.5 41.5208 0.5 40.375V10.125C0.5 8.97917 0.901042 8.00521 1.70312 7.20312C2.50521 6.40104 3.47917 6 4.625 6H11.5C11.5 4.51042 12.0443 3.22135 13.1328 2.13281C14.2214 1.04427 15.5104 0.5 17 0.5C18.4896 0.5 19.7786 1.04427 20.8672 2.13281C21.9557 3.22135 22.5 4.51042 22.5 6H29.375ZM18.4609 4.53906C18.0599 4.13802 17.5729 3.9375 17 3.9375C16.4271 3.9375 15.9401 4.13802 15.5391 4.53906C15.138 4.9401 14.9375 5.42708 14.9375 6C14.9375 6.57292 15.138 7.0599 15.5391 7.46094C15.9401 7.86198 16.4271 8.0625 17 8.0625C17.5729 8.0625 18.0599 7.86198 18.4609 7.46094C18.862 7.0599 19.0625 6.57292 19.0625 6C19.0625 5.42708 18.862 4.9401 18.4609 4.53906ZM25.25 30.0625V25.9375C25.25 25.4792 25.0208 25.25 24.5625 25.25H19.75V20.4375C19.75 19.9792 19.5208 19.75 19.0625 19.75H14.9375C14.4792 19.75 14.25 19.9792 14.25 20.4375V25.25H9.4375C8.97917 25.25 8.75 25.4792 8.75 25.9375V30.0625C8.75 30.5208 8.97917 30.75 9.4375 30.75H14.25V35.5625C14.25 36.0208 14.4792 36.25 14.9375 36.25H19.0625C19.5208 36.25 19.75 36.0208 19.75 35.5625V30.75H24.5625C25.0208 30.75 25.25 30.5208 25.25 30.0625ZM25.25 13.5625V12.1875C25.25 11.7292 25.0208 11.5 24.5625 11.5H9.4375C8.97917 11.5 8.75 11.7292 8.75 12.1875V13.5625C8.75 14.0208 8.97917 14.25 9.4375 14.25H24.5625C25.0208 14.25 25.25 14.0208 25.25 13.5625Z" fill="#262626"/>
</svg>
