<svg width="21" height="16" viewBox="0 0 21 16" fill="none" xmlns="http://www.w3.org/2000/svg">
<path d="M12.5625 7.15625H6.875V9.21875H10.2812C10.1562 10.0938 9.25 11.8125 6.875 11.8125C4.84375 11.8125 3.15625 10.125 3.15625 8C3.15625 5.90625 4.84375 4.21875 6.875 4.21875C8.0625 4.21875 8.84375 4.71875 9.28125 5.15625L10.9062 3.59375C9.84375 2.59375 8.5 2 6.875 2C3.5625 2 0.875 4.6875 0.875 8C0.875 11.3438 3.5625 14 6.875 14C10.3438 14 12.6562 11.5938 12.6562 8.15625C12.6562 7.75 12.5938 7.46875 12.5625 7.15625ZM18.3438 7.34375V5.625H16.5938V7.34375H14.8438V9.09375H16.5938V10.8438H18.3438V9.09375H20.0938V7.34375H18.3438Z" fill="white"/>
</svg>
